<?xml version="1.0" encoding="utf-8"?>
<svg xmlns="http://www.w3.org/2000/svg" height="512pt" version="1.1" viewBox="0 0 512 512" width="512pt">
<path d="M 0.00 0.00 L 512.00 0.00 L 512.00 512.00 L 0.00 512.00 L 0.00 0.00 Z" fill="transparent" opacity="1.00" stroke="transparent" stroke-width="0.25"/>
<path d="M 74.40 20.41 C 99.53 10.06 127.29 9.99 154.00 8.94 C 236.03 12.31 318.45 7.07 400.35 9.59 C 427.19 9.82 454.67 8.36 481.70 10.33 C 485.78 10.37 491.22 16.37 488.11 18.98 C 487.88 18.67 487.43 18.07 487.21 17.76 C 486.90 17.35 486.29 16.53 485.98 16.12 L 485.52 15.53 C 484.53 13.98 483.23 12.63 481.25 12.70 C 448.79 9.98 416.45 11.87 384.00 12.01 C 338.61 12.51 293.12 10.95 247.79 12.80 C 247.33 12.84 246.42 12.93 245.96 12.97 C 214.98 12.31 183.76 14.86 153.01 10.93 C 135.27 12.31 117.09 12.46 99.69 15.64 C 55.34 23.78 19.97 64.99 16.65 109.68 C 15.40 122.90 16.14 136.21 16.03 149.47 C 13.88 201.29 14.00 253.23 14.06 305.18 C 13.99 360.44 13.91 415.71 14.09 470.97 C 14.91 475.47 14.94 482.21 20.39 483.68 C 50.17 484.62 80.00 483.46 109.79 484.20 C 169.20 485.58 228.92 485.41 288.30 484.32 C 321.85 483.48 355.42 484.40 388.98 483.88 C 429.40 480.29 464.22 450.46 479.88 413.89 C 488.01 394.09 489.23 372.38 487.75 351.24 C 487.51 244.83 488.24 138.44 488.00 31.98 C 491.67 48.63 489.01 68.91 491.01 86.99 C 489.54 158.96 490.07 230.99 489.99 303.01 C 490.88 338.68 496.98 375.66 484.05 410.02 C 468.79 448.88 434.04 484.15 390.59 486.47 C 267.93 487.54 144.83 486.72 22.07 486.90 C 17.17 485.22 12.69 481.08 12.47 475.61 C 9.51 423.47 11.68 371.19 10.97 319.00 C 12.93 251.97 11.99 185.02 11.99 117.99 C 12.41 110.89 11.88 103.40 14.60 96.66 C 21.00 77.01 29.48 57.24 45.23 43.23 C 53.64 34.05 64.36 27.59 74.40 20.41 Z" fill="#f8eeee" opacity="1.00" stroke="#f8eeee" stroke-width="0.25"/>
<path d="M 99.69 15.64 C 117.09 12.46 135.27 12.31 153.01 10.93 C 183.76 14.86 214.98 12.31 245.96 12.97 L 246.00 13.99 C 245.30 14.05 243.91 14.18 243.22 14.24 C 218.07 13.88 192.91 13.83 167.76 14.21 C 146.25 13.68 124.65 13.85 103.25 16.28 C 102.36 16.12 100.58 15.80 99.69 15.64 Z" fill="#dfc7c4" opacity="1.00" stroke="#dfc7c4" stroke-width="0.25"/>
<path d="M 384.00 12.01 C 416.45 11.87 448.79 9.98 481.25 12.70 C 448.84 13.35 416.42 12.84 384.00 12.99 L 384.00 12.01 Z" fill="#e3d3d1" opacity="1.00" stroke="#e3d3d1" stroke-width="0.25"/>
<path d="M 247.79 12.80 C 293.12 10.95 338.61 12.51 384.00 12.01 L 384.00 12.99 C 338.60 12.87 293.18 13.28 247.79 12.80 Z" fill="#e3ccca" opacity="1.00" stroke="#e3ccca" stroke-width="0.25"/>
<path d="M 245.96 12.97 C 246.42 12.93 247.33 12.84 247.79 12.80 C 293.18 13.28 338.60 12.87 384.00 12.99 C 416.42 12.84 448.84 13.35 481.25 12.70 C 483.23 12.63 484.53 13.98 485.52 15.53 L 484.51 15.44 C 405.25 12.06 325.46 14.98 246.00 13.99 L 245.96 12.97 Z" fill="#d1b3b1" opacity="1.00" stroke="#d1b3b1" stroke-width="0.25"/>
<path d="M 103.25 16.28 C 124.65 13.85 146.25 13.68 167.76 14.21 C 192.84 15.54 218.13 15.48 243.22 14.24 C 243.91 14.18 245.30 14.05 246.00 13.99 C 325.46 14.98 405.25 12.06 484.51 15.44 C 483.93 15.56 482.76 15.80 482.18 15.92 C 481.69 15.88 480.71 15.81 480.22 15.77 C 401.46 14.44 322.47 14.58 243.71 15.70 C 194.59 17.97 144.97 12.39 96.14 19.02 C 95.30 18.96 93.62 18.84 92.78 18.79 C 96.18 17.62 99.73 17.03 103.25 16.28 Z" fill="#be9391" opacity="1.00" stroke="#be9391" stroke-width="0.25"/>
<path d="M 167.76 14.21 C 192.91 13.83 218.07 13.88 243.22 14.24 C 218.13 15.48 192.84 15.54 167.76 14.21 Z" fill="#d1acaa" opacity="1.00" stroke="#d1acaa" stroke-width="0.25"/>
<path d="M 243.71 15.70 C 322.47 14.58 401.46 14.44 480.22 15.77 C 401.39 16.09 322.53 16.26 243.71 15.70 Z" fill="#af7c7b" opacity="1.00" stroke="#af7c7b" stroke-width="0.25"/>
<path d="M 16.65 109.68 C 19.97 64.99 55.34 23.78 99.69 15.64 C 100.58 15.80 102.36 16.12 103.25 16.28 C 99.73 17.03 96.18 17.62 92.78 18.79 C 79.99 22.31 67.20 28.52 58.08 38.12 C 34.84 52.38 23.44 79.95 18.71 105.77 C 17.06 137.13 18.48 168.60 17.98 200.00 L 16.99 199.95 C 15.52 183.16 17.60 166.04 16.03 149.47 C 16.14 136.21 15.40 122.90 16.65 109.68 Z" fill="#e0b2b2" opacity="1.00" stroke="#e0b2b2" stroke-width="0.25"/>
<path d="M 96.14 19.02 C 144.97 12.39 194.59 17.97 243.71 15.70 C 322.53 16.26 401.39 16.09 480.22 15.77 C 480.71 15.81 481.69 15.88 482.18 15.92 L 481.90 16.90 L 480.93 16.95 C 451.53 17.54 422.02 16.03 392.70 17.67 C 356.54 18.53 320.36 17.60 284.21 18.14 C 232.23 17.37 180.28 17.99 128.28 18.26 C 117.36 16.95 106.65 19.36 95.82 19.94 L 96.14 19.02 Z" fill="#a15a5b" opacity="1.00" stroke="#a15a5b" stroke-width="0.25"/>
<path d="M 482.18 15.92 C 482.76 15.80 483.93 15.56 484.51 15.44 C 485.87 139.37 484.24 263.37 485.32 387.30 C 483.44 395.57 481.90 404.00 478.96 411.98 L 477.93 411.76 C 477.91 410.49 477.91 409.22 477.91 407.96 C 479.73 403.78 481.98 399.56 482.05 394.89 C 485.29 373.50 483.84 351.77 483.79 330.22 C 484.28 260.15 483.85 190.06 484.01 119.98 C 483.93 87.99 484.11 56.00 483.94 24.02 C 485.07 21.02 483.31 19.02 481.90 16.90 L 482.18 15.92 Z" fill="#af8085" opacity="1.00" stroke="#af8085" stroke-width="0.25"/>
<path d="M 484.51 15.44 L 485.52 15.53 L 485.98 16.12 C 486.23 55.84 485.59 95.58 486.29 135.29 C 485.83 192.42 485.77 249.58 486.31 306.70 C 485.02 333.53 487.28 360.57 485.32 387.30 C 484.24 263.37 485.87 139.37 484.51 15.44 Z" fill="#c2a1a6" opacity="1.00" stroke="#c2a1a6" stroke-width="0.25"/>
<path d="M 485.98 16.12 C 486.29 16.53 486.90 17.35 487.21 17.76 C 486.26 56.93 488.08 96.18 486.29 135.29 C 485.59 95.58 486.23 55.84 485.98 16.12 Z" fill="#d2c0c4" opacity="1.00" stroke="#d2c0c4" stroke-width="0.25"/>
<path d="M 128.28 18.26 C 180.28 17.99 232.23 17.37 284.21 18.14 C 281.69 18.62 279.23 19.10 276.76 19.64 C 265.34 21.02 253.50 18.37 242.28 21.05 C 222.71 17.62 202.95 22.59 183.31 20.69 C 167.32 19.04 151.24 20.20 135.26 21.24 C 129.19 21.09 123.11 20.97 117.04 21.16 C 115.96 20.75 114.93 20.24 113.93 19.65 C 118.75 20.04 123.60 19.46 128.28 18.26 Z" fill="#932b31" opacity="1.00" stroke="#932b31" stroke-width="0.25"/>
<path d="M 392.70 17.67 C 422.02 16.03 451.53 17.54 480.93 16.95 L 481.17 17.88 C 467.52 18.25 453.86 17.65 440.22 18.20 C 424.38 17.74 408.53 18.34 392.70 17.67 Z" fill="#8a494a" opacity="1.00" stroke="#8a494a" stroke-width="0.25"/>
<path d="M 480.93 16.95 L 481.90 16.90 C 483.31 19.02 485.07 21.02 483.94 24.02 C 484.11 56.00 483.93 87.99 484.01 119.98 L 483.07 120.01 C 483.01 116.83 483.29 113.59 482.14 110.57 C 482.54 79.75 482.39 48.61 481.17 17.88 L 480.93 16.95 Z" fill="#864e53" opacity="1.00" stroke="#864e53" stroke-width="0.25"/>
<path d="M 95.82 19.94 C 106.65 19.36 117.36 16.95 128.28 18.26 C 123.60 19.46 118.75 20.04 113.93 19.65 C 79.64 20.71 48.06 43.07 33.57 73.70 C 25.16 89.38 21.55 107.15 20.89 124.81 C 20.70 125.17 20.31 125.88 20.12 126.23 C 17.02 92.99 33.09 59.32 58.08 38.12 C 69.43 29.86 81.99 22.97 95.82 19.94 Z" fill="#a53942" opacity="1.00" stroke="#a53942" stroke-width="0.25"/>
<path d="M 284.21 18.14 C 320.36 17.60 356.54 18.53 392.70 17.67 C 408.53 18.34 424.38 17.74 440.22 18.20 C 423.81 20.52 407.33 19.20 390.84 20.16 C 378.31 21.21 365.67 19.91 353.08 20.98 C 330.00 20.97 306.93 21.05 283.85 20.98 C 281.48 20.49 279.12 20.04 276.76 19.64 C 279.23 19.10 281.69 18.62 284.21 18.14 Z" fill="#81262c" opacity="1.00" stroke="#81262c" stroke-width="0.25"/>
<path d="M 440.22 18.20 C 453.86 17.65 467.52 18.25 481.17 17.88 C 482.39 48.61 482.54 79.75 482.14 110.57 C 481.31 112.67 480.96 114.90 480.90 117.15 C 478.56 117.26 476.32 116.75 476.06 114.06 C 480.48 108.76 482.09 97.25 473.86 95.13 C 470.43 86.02 462.41 75.89 451.26 78.77 C 447.82 72.96 443.21 67.68 438.63 62.52 C 428.80 59.79 427.42 46.02 418.09 42.85 C 415.55 35.36 406.07 35.81 400.97 31.25 C 399.07 26.56 394.05 24.06 390.84 20.16 C 407.33 19.20 423.81 20.52 440.22 18.20 Z" fill="#761a21" opacity="1.00" stroke="#761a21" stroke-width="0.25"/>
<path d="M 487.21 17.76 C 487.43 18.07 487.88 18.67 488.11 18.98 C 488.15 23.31 488.03 27.65 488.00 31.98 C 488.24 138.44 487.51 244.83 487.75 351.24 C 485.56 336.48 488.53 321.39 486.31 306.70 C 485.77 249.58 485.83 192.42 486.29 135.29 C 488.08 96.18 486.26 56.93 487.21 17.76 Z" fill="#e1d0d4" opacity="1.00" stroke="#e1d0d4" stroke-width="0.25"/>
<path d="M 58.08 38.12 C 67.20 28.52 79.99 22.31 92.78 18.79 C 93.62 18.84 95.30 18.96 96.14 19.02 L 95.82 19.94 C 81.99 22.97 69.43 29.86 58.08 38.12 Z" fill="#b97075" opacity="1.00" stroke="#b97075" stroke-width="0.25"/>
<path d="M 33.57 73.70 C 48.06 43.07 79.64 20.71 113.93 19.65 C 114.93 20.24 115.96 20.75 117.04 21.16 C 114.81 22.25 113.74 24.31 113.23 26.63 C 110.23 29.11 105.73 31.11 104.31 34.84 C 110.57 38.57 119.82 37.33 125.49 41.43 C 127.81 53.45 126.14 39.01 130.87 39.98 C 132.76 46.87 135.86 52.97 135.58 60.39 C 135.31 66.60 146.95 61.49 142.90 70.01 C 141.56 76.06 143.96 82.49 151.28 81.72 C 150.29 88.07 154.88 88.00 159.36 88.60 C 156.63 98.43 166.88 93.53 169.46 99.70 C 180.08 98.45 189.33 102.99 199.11 105.95 C 202.56 109.81 208.55 105.35 211.85 109.12 C 220.02 113.69 208.14 131.59 222.70 128.29 C 223.56 134.19 228.28 137.91 229.14 144.04 C 233.61 139.70 240.09 139.06 246.64 139.72 C 248.49 135.26 255.17 134.07 257.82 138.30 C 259.12 141.01 256.53 142.73 254.75 144.23 C 262.63 149.32 272.34 139.75 279.96 145.22 C 281.50 151.23 272.95 146.19 272.77 151.74 C 283.63 151.21 277.02 152.07 275.01 153.79 C 277.29 153.74 279.11 154.34 279.01 156.90 C 278.58 156.86 277.73 156.78 277.30 156.75 C 270.45 157.58 260.07 151.87 255.03 159.06 C 251.29 166.85 248.41 156.39 244.06 155.98 C 235.35 153.99 225.07 154.10 216.72 157.68 C 214.75 159.23 213.20 168.36 211.24 162.86 C 206.19 136.91 170.45 122.78 150.20 140.77 C 140.65 135.22 140.51 123.31 139.72 113.33 C 134.62 109.21 129.22 105.03 127.51 98.41 C 125.92 93.45 117.40 98.96 116.99 93.01 C 116.13 86.83 108.86 88.99 104.66 87.36 C 104.99 82.28 103.33 78.96 97.85 79.10 C 94.42 73.45 87.04 73.82 81.23 73.08 C 78.39 75.45 78.84 81.84 72.99 78.94 C 66.59 76.98 61.96 80.43 61.84 87.01 C 56.11 89.18 56.34 78.81 50.14 82.45 C 44.18 82.84 33.55 81.26 33.57 73.70 Z" fill="#a4242e" opacity="1.00" stroke="#a4242e" stroke-width="0.25"/>
<path d="M 135.26 21.24 C 151.24 20.20 167.32 19.04 183.31 20.69 C 202.95 22.59 222.71 17.62 242.28 21.05 C 233.41 23.08 222.66 17.79 215.77 25.65 C 225.63 23.93 223.74 33.18 224.63 39.35 C 231.17 38.20 232.55 41.95 232.59 47.36 C 239.54 48.41 246.24 51.20 253.04 48.01 C 258.84 47.29 252.90 59.91 261.87 56.24 C 265.23 56.40 263.34 61.07 264.64 63.42 C 268.94 66.54 276.89 58.04 279.56 64.41 C 276.83 75.98 289.38 70.09 295.30 72.69 C 292.72 85.32 308.24 76.54 312.60 80.76 C 309.29 87.41 314.31 88.37 319.36 88.60 C 315.92 96.17 327.52 99.07 327.96 91.94 C 329.97 86.03 330.07 97.21 334.10 97.86 C 333.64 105.17 339.86 105.88 345.16 104.30 C 351.25 103.00 346.32 121.05 353.61 116.67 C 359.91 112.10 359.74 122.72 365.87 120.25 C 370.40 120.81 365.97 130.31 373.80 127.46 C 382.46 127.76 380.20 137.81 382.76 143.25 C 384.90 147.31 389.62 145.30 393.35 145.68 C 392.07 151.40 399.67 152.25 398.33 157.90 C 399.56 161.92 398.81 167.00 402.31 169.90 C 407.48 170.92 417.83 163.09 416.22 173.88 C 417.25 179.15 427.08 175.03 424.72 183.28 C 430.05 181.57 433.70 189.55 429.42 192.43 C 426.27 194.06 427.37 201.87 431.44 199.40 C 436.78 196.41 442.24 199.68 447.69 200.36 C 446.05 205.63 449.63 208.43 453.46 210.56 C 455.19 213.52 456.79 216.65 460.35 217.69 C 468.62 223.32 457.68 239.53 469.65 241.37 C 474.04 249.21 471.76 260.08 474.14 268.95 C 477.07 278.18 473.49 288.21 476.77 297.34 C 477.68 294.04 475.61 289.23 478.85 286.70 C 478.90 305.66 480.59 324.56 480.00 343.54 C 478.79 351.30 478.68 359.17 477.84 366.97 C 473.41 366.34 472.78 357.16 472.57 353.49 C 475.47 337.68 476.41 320.94 470.26 305.74 C 466.51 301.07 465.14 295.02 463.63 289.38 C 458.82 286.62 456.15 281.56 452.04 278.01 C 447.73 273.06 450.00 262.74 441.70 262.26 C 444.13 254.64 434.15 252.64 435.63 246.20 C 434.18 242.26 430.63 249.31 429.54 245.62 C 430.16 241.99 427.55 240.39 425.20 238.82 C 422.40 229.50 412.08 225.04 407.50 216.46 C 400.28 214.55 402.20 208.00 399.81 203.19 C 392.35 200.65 385.67 196.15 381.57 189.23 C 376.15 189.39 369.37 195.04 365.14 188.71 C 371.33 173.12 366.43 151.35 353.72 139.36 C 346.86 137.50 341.67 131.57 334.16 131.73 C 325.22 129.20 312.45 135.46 306.31 125.67 C 305.53 120.80 308.00 114.06 302.62 111.22 C 292.17 110.15 281.38 112.36 271.10 109.98 C 266.07 107.60 258.10 111.82 255.08 105.87 C 250.73 102.32 243.09 106.52 239.57 101.44 C 231.68 95.87 222.45 92.96 214.44 87.70 C 205.40 89.40 211.02 74.28 201.14 79.24 C 195.61 81.75 193.09 79.28 191.48 74.60 C 183.12 73.18 186.39 61.00 176.74 62.26 C 175.24 56.43 170.15 52.73 172.80 46.11 C 167.67 44.60 159.43 44.59 155.60 41.23 C 159.69 35.20 149.74 38.76 146.99 36.06 C 140.78 31.49 130.55 31.34 128.86 22.26 C 130.46 22.01 133.66 21.49 135.26 21.24 Z" fill="#951f27" opacity="1.00" stroke="#951f27" stroke-width="0.25"/>
<path d="M 242.28 21.05 C 253.50 18.37 265.34 21.02 276.76 19.64 C 279.12 20.04 281.48 20.49 283.85 20.98 C 285.28 24.06 287.20 26.88 289.32 29.53 C 296.51 27.20 294.68 34.84 298.55 37.44 C 301.25 41.84 309.71 39.06 308.58 46.47 C 313.68 49.13 309.50 58.42 317.88 56.23 C 322.55 56.62 317.81 67.49 325.96 62.82 C 331.84 62.37 346.82 60.43 343.97 70.76 C 342.06 71.57 338.38 72.85 340.64 75.36 C 343.15 77.63 344.43 73.88 345.29 72.01 C 348.56 71.76 352.39 71.84 355.23 73.74 C 354.69 79.32 361.43 80.73 360.69 86.38 C 366.80 87.84 373.31 87.14 379.38 88.59 C 379.94 91.23 379.06 94.83 382.14 95.85 C 385.70 97.00 384.04 102.18 387.67 103.34 C 392.92 106.15 391.03 113.47 389.93 118.00 C 394.57 115.84 403.36 115.61 405.98 119.71 C 397.72 116.46 397.51 131.44 405.87 128.24 C 410.76 128.73 405.01 140.34 414.01 136.04 C 418.61 137.34 416.65 131.99 417.15 129.00 C 426.66 127.23 421.51 141.71 429.15 143.80 C 435.39 144.51 431.10 154.77 439.32 152.69 C 438.18 159.22 442.01 160.51 447.36 160.60 C 446.16 167.16 449.94 168.55 455.36 168.60 C 453.65 175.58 458.82 176.07 463.61 177.29 C 464.06 182.78 467.66 187.05 467.20 192.76 C 474.45 189.86 470.87 201.14 472.18 204.95 C 474.64 213.07 475.37 221.51 474.16 229.94 C 473.63 230.95 475.88 233.11 476.28 231.35 C 477.75 223.96 477.14 216.15 478.71 208.72 C 479.23 234.70 479.05 260.71 478.85 286.70 C 475.61 289.23 477.68 294.04 476.77 297.34 C 473.49 288.21 477.07 278.18 474.14 268.95 C 471.76 260.08 474.04 249.21 469.65 241.37 C 457.68 239.53 468.62 223.32 460.35 217.69 C 456.79 216.65 455.19 213.52 453.46 210.56 C 449.63 208.43 446.05 205.63 447.69 200.36 C 442.24 199.68 436.78 196.41 431.44 199.40 C 427.37 201.87 426.27 194.06 429.42 192.43 C 433.70 189.55 430.05 181.57 424.72 183.28 C 427.08 175.03 417.25 179.15 416.22 173.88 C 417.83 163.09 407.48 170.92 402.31 169.90 C 398.81 167.00 399.56 161.92 398.33 157.90 C 399.67 152.25 392.07 151.40 393.35 145.68 C 389.62 145.30 384.90 147.31 382.76 143.25 C 380.20 137.81 382.46 127.76 373.80 127.46 C 365.97 130.31 370.40 120.81 365.87 120.25 C 359.74 122.72 359.91 112.10 353.61 116.67 C 346.32 121.05 351.25 103.00 345.16 104.30 C 339.86 105.88 333.64 105.17 334.10 97.86 C 330.07 97.21 329.97 86.03 327.96 91.94 C 327.52 99.07 315.92 96.17 319.36 88.60 C 314.31 88.37 309.29 87.41 312.60 80.76 C 308.24 76.54 292.72 85.32 295.30 72.69 C 289.38 70.09 276.83 75.98 279.56 64.41 C 276.89 58.04 268.94 66.54 264.64 63.42 C 263.34 61.07 265.23 56.40 261.87 56.24 C 252.90 59.91 258.84 47.29 253.04 48.01 C 246.24 51.20 239.54 48.41 232.59 47.36 C 232.55 41.95 231.17 38.20 224.63 39.35 C 223.74 33.18 225.63 23.93 215.77 25.65 C 222.66 17.79 233.41 23.08 242.28 21.05 Z" fill="#8f1e25" opacity="1.00" stroke="#8f1e25" stroke-width="0.25"/>
<path d="M 353.08 20.98 C 365.67 19.91 378.31 21.21 390.84 20.16 C 394.05 24.06 399.07 26.56 400.97 31.25 C 406.07 35.81 415.55 35.36 418.09 42.85 C 427.42 46.02 428.80 59.79 438.63 62.52 C 443.21 67.68 447.82 72.96 451.26 78.77 C 462.41 75.89 470.43 86.02 473.86 95.13 C 482.09 97.25 480.48 108.76 476.06 114.06 C 476.32 116.75 478.56 117.26 480.90 117.15 C 480.96 123.03 480.89 128.96 479.82 134.77 C 477.24 144.59 479.98 155.30 476.76 164.80 C 470.42 159.40 473.67 147.22 472.27 138.96 C 471.76 135.95 473.12 128.20 468.12 127.98 C 464.39 126.91 469.36 135.60 465.15 133.87 C 464.13 129.53 464.15 125.01 463.43 120.63 C 451.92 121.02 445.56 110.43 434.44 109.57 C 430.79 103.22 425.60 95.83 417.72 94.25 C 418.84 84.70 407.41 85.97 404.90 78.21 C 404.04 70.29 394.24 70.64 391.26 63.70 C 384.44 58.57 383.67 48.76 374.72 47.32 C 375.56 42.21 373.04 39.81 368.72 39.27 C 369.55 30.22 358.72 33.97 353.88 30.08 C 350.96 27.33 345.80 29.63 343.67 25.97 C 345.86 22.72 355.00 25.67 353.08 20.98 Z" fill="#7f1a21" opacity="1.00" stroke="#7f1a21" stroke-width="0.25"/>
<path d="M 117.04 21.16 C 123.11 20.97 129.19 21.09 135.26 21.24 C 133.66 21.49 130.46 22.01 128.86 22.26 C 130.55 31.34 140.78 31.49 146.99 36.06 C 149.74 38.76 159.69 35.20 155.60 41.23 C 159.43 44.59 167.67 44.60 172.80 46.11 C 170.15 52.73 175.24 56.43 176.74 62.26 C 186.39 61.00 183.12 73.18 191.48 74.60 C 193.09 79.28 195.61 81.75 201.14 79.24 C 211.02 74.28 205.40 89.40 214.44 87.70 C 222.45 92.96 231.68 95.87 239.57 101.44 C 243.09 106.52 250.73 102.32 255.08 105.87 C 258.10 111.82 266.07 107.60 271.10 109.98 C 281.38 112.36 292.17 110.15 302.62 111.22 C 308.00 114.06 305.53 120.80 306.31 125.67 C 312.45 135.46 325.22 129.20 334.16 131.73 C 341.67 131.57 346.86 137.50 353.72 139.36 C 366.43 151.35 371.33 173.12 365.14 188.71 C 369.37 195.04 376.15 189.39 381.57 189.23 C 385.67 196.15 392.35 200.65 399.81 203.19 C 402.20 208.00 400.28 214.55 407.50 216.46 C 412.08 225.04 422.40 229.50 425.20 238.82 C 427.55 240.39 430.16 241.99 429.54 245.62 C 430.63 249.31 434.18 242.26 435.63 246.20 C 434.15 252.64 444.13 254.64 441.70 262.26 C 450.00 262.74 447.73 273.06 452.04 278.01 C 456.15 281.56 458.82 286.62 463.63 289.38 C 465.14 295.02 466.51 301.07 470.26 305.74 C 476.41 320.94 475.47 337.68 472.57 353.49 C 472.78 357.16 473.41 366.34 477.84 366.97 C 478.68 359.17 478.79 351.30 480.00 343.54 C 481.91 351.64 478.77 359.87 480.65 367.99 C 479.60 375.88 478.24 383.72 477.58 391.66 C 477.30 394.54 475.26 397.73 471.96 397.07 C 471.12 392.87 479.77 394.99 476.04 388.95 C 478.02 382.93 474.10 376.74 467.99 376.01 C 463.74 375.79 465.02 370.58 462.51 368.49 C 458.90 366.22 461.23 360.71 456.82 359.07 C 453.99 353.33 461.87 344.95 454.58 340.46 C 449.69 342.03 448.34 338.24 446.70 335.14 C 442.53 334.87 438.35 335.34 434.22 334.81 C 429.30 331.22 434.50 320.33 427.07 319.56 C 430.60 316.51 433.24 310.46 439.02 312.12 C 442.21 312.44 450.27 312.74 446.74 306.30 C 441.21 301.70 422.99 308.97 423.28 296.67 C 419.25 295.28 414.52 296.56 410.22 295.81 C 406.30 293.18 409.70 284.79 404.61 283.92 C 403.09 270.13 406.44 253.33 395.66 242.34 C 389.72 236.97 386.35 228.77 379.32 224.70 C 368.82 221.05 358.19 214.25 346.77 216.10 C 346.37 216.04 345.57 215.93 345.18 215.87 C 328.74 216.87 313.71 210.16 298.29 205.69 C 288.00 200.50 285.12 187.71 286.20 177.14 C 288.05 169.87 287.81 159.18 279.01 156.90 C 279.11 154.34 277.29 153.74 275.01 153.79 C 277.02 152.07 283.63 151.21 272.77 151.74 C 272.95 146.19 281.50 151.23 279.96 145.22 C 272.34 139.75 262.63 149.32 254.75 144.23 C 256.53 142.73 259.12 141.01 257.82 138.30 C 255.17 134.07 248.49 135.26 246.64 139.72 C 240.09 139.06 233.61 139.70 229.14 144.04 C 228.28 137.91 223.56 134.19 222.70 128.29 C 208.14 131.59 220.02 113.69 211.85 109.12 C 208.55 105.35 202.56 109.81 199.11 105.95 C 189.33 102.99 180.08 98.45 169.46 99.70 C 166.88 93.53 156.63 98.43 159.36 88.60 C 154.88 88.00 150.29 88.07 151.28 81.72 C 143.96 82.49 141.56 76.06 142.90 70.01 C 146.95 61.49 135.31 66.60 135.58 60.39 C 135.86 52.97 132.76 46.87 130.87 39.98 C 126.14 39.01 127.81 53.45 125.49 41.43 C 119.82 37.33 110.57 38.57 104.31 34.84 C 105.73 31.11 110.23 29.11 113.23 26.63 C 113.74 24.31 114.81 22.25 117.04 21.16 Z" fill="#9c222b" opacity="1.00" stroke="#9c222b" stroke-width="0.25"/>
<path d="M 283.85 20.98 C 306.93 21.05 330.00 20.97 353.08 20.98 C 355.00 25.67 345.86 22.72 343.67 25.97 C 345.80 29.63 350.96 27.33 353.88 30.08 C 358.72 33.97 369.55 30.22 368.72 39.27 C 373.04 39.81 375.56 42.21 374.72 47.32 C 383.67 48.76 384.44 58.57 391.26 63.70 C 394.24 70.64 404.04 70.29 404.90 78.21 C 407.41 85.97 418.84 84.70 417.72 94.25 C 425.60 95.83 430.79 103.22 434.44 109.57 C 445.56 110.43 451.92 121.02 463.43 120.63 C 464.15 125.01 464.13 129.53 465.15 133.87 C 469.36 135.60 464.39 126.91 468.12 127.98 C 473.12 128.20 471.76 135.95 472.27 138.96 C 473.67 147.22 470.42 159.40 476.76 164.80 C 479.98 155.30 477.24 144.59 479.82 134.77 C 480.52 159.44 478.53 184.05 478.71 208.72 C 477.14 216.15 477.75 223.96 476.28 231.35 C 475.88 233.11 473.63 230.95 474.16 229.94 C 475.37 221.51 474.64 213.07 472.18 204.95 C 470.87 201.14 474.45 189.86 467.20 192.76 C 467.66 187.05 464.06 182.78 463.61 177.29 C 458.82 176.07 453.65 175.58 455.36 168.60 C 449.94 168.55 446.16 167.16 447.36 160.60 C 442.01 160.51 438.18 159.22 439.32 152.69 C 431.10 154.77 435.39 144.51 429.15 143.80 C 421.51 141.71 426.66 127.23 417.15 129.00 C 416.65 131.99 418.61 137.34 414.01 136.04 C 405.01 140.34 410.76 128.73 405.87 128.24 C 397.51 131.44 397.72 116.46 405.98 119.71 C 403.36 115.61 394.57 115.84 389.93 118.00 C 391.03 113.47 392.92 106.15 387.67 103.34 C 384.04 102.18 385.70 97.00 382.14 95.85 C 379.06 94.83 379.94 91.23 379.38 88.59 C 373.31 87.14 366.80 87.84 360.69 86.38 C 361.43 80.73 354.69 79.32 355.23 73.74 C 352.39 71.84 348.56 71.76 345.29 72.01 C 344.43 73.88 343.15 77.63 340.64 75.36 C 338.38 72.85 342.06 71.57 343.97 70.76 C 346.82 60.43 331.84 62.37 325.96 62.82 C 317.81 67.49 322.55 56.62 317.88 56.23 C 309.50 58.42 313.68 49.13 308.58 46.47 C 309.71 39.06 301.25 41.84 298.55 37.44 C 294.68 34.84 296.51 27.20 289.32 29.53 C 287.20 26.88 285.28 24.06 283.85 20.98 Z" fill="#871c23" opacity="1.00" stroke="#871c23" stroke-width="0.25"/>
<path d="M 18.71 105.77 C 23.44 79.95 34.84 52.38 58.08 38.12 C 33.09 59.32 17.02 92.99 20.12 126.23 C 19.95 140.06 19.82 153.90 20.24 167.73 C 19.12 182.87 21.32 198.26 19.31 213.30 C 18.43 177.46 19.56 141.61 18.71 105.77 Z" fill="#bc636a" opacity="1.00" stroke="#bc636a" stroke-width="0.25"/>
<path d="M 81.23 73.08 C 87.04 73.82 94.42 73.45 97.85 79.10 C 103.33 78.96 104.99 82.28 104.66 87.36 C 108.86 88.99 116.13 86.83 116.99 93.01 C 117.40 98.96 125.92 93.45 127.51 98.41 C 129.22 105.03 134.62 109.21 139.72 113.33 C 140.51 123.31 140.65 135.22 150.20 140.77 C 138.11 147.69 134.54 163.09 134.93 176.03 C 135.21 187.93 145.78 195.02 151.68 204.29 C 153.28 206.52 155.90 207.67 158.00 209.35 C 148.55 217.33 132.77 211.56 124.24 221.29 C 120.01 221.60 111.86 223.15 111.04 216.89 C 109.04 212.70 117.13 213.94 113.33 210.18 C 121.29 206.85 112.29 199.48 110.97 194.41 C 102.51 198.20 105.65 186.08 100.95 184.09 C 95.48 187.46 86.82 183.41 89.11 175.99 C 87.85 169.89 91.59 155.08 80.56 158.47 C 84.02 169.80 71.66 169.70 64.64 167.29 C 58.92 160.35 72.03 160.31 67.54 153.52 C 56.16 152.58 44.65 151.21 33.25 152.21 C 29.57 156.04 35.47 169.96 24.99 165.99 C 23.05 160.67 31.25 159.11 29.84 154.28 C 27.88 150.48 19.65 154.19 22.99 146.97 C 22.37 139.38 23.77 131.76 23.03 124.20 C 22.49 124.36 21.42 124.66 20.89 124.81 C 21.55 107.15 25.16 89.38 33.57 73.70 C 33.55 81.26 44.18 82.84 50.14 82.45 C 56.34 78.81 56.11 89.18 61.84 87.01 C 61.96 80.43 66.59 76.98 72.99 78.94 C 78.84 81.84 78.39 75.45 81.23 73.08 Z" fill="#ad272f" opacity="1.00" stroke="#ad272f" stroke-width="0.25"/>
<path d="M 17.98 200.00 C 18.48 168.60 17.06 137.13 18.71 105.77 C 19.56 141.61 18.43 177.46 19.31 213.30 C 18.85 227.76 18.74 242.26 19.28 256.73 C 18.66 330.18 16.64 403.99 18.76 477.21 C 19.79 478.52 21.02 479.97 22.77 480.24 C 100.50 481.91 178.42 480.71 256.22 480.84 C 258.05 480.88 259.88 480.85 261.71 480.73 C 304.55 480.90 347.50 481.70 390.30 480.37 C 391.46 480.22 392.62 480.09 393.79 479.97 C 397.96 479.88 401.79 477.83 405.99 478.05 C 399.57 481.40 392.28 481.49 385.29 482.36 C 264.13 481.69 142.94 481.90 21.78 482.25 C 15.15 480.48 17.22 472.08 16.17 466.97 C 15.87 416.39 15.90 365.80 16.17 315.22 C 20.43 277.08 16.82 238.36 17.98 200.00 Z" fill="#dc7c81" opacity="1.00" stroke="#dc7c81" stroke-width="0.25"/>
<path d="M 482.14 110.57 C 483.29 113.59 483.01 116.83 483.07 120.01 C 482.99 121.93 482.90 123.85 482.80 125.78 C 481.17 207.24 481.52 289.02 481.24 370.22 C 481.09 369.66 480.80 368.55 480.65 367.99 C 478.77 359.87 481.91 351.64 480.00 343.54 C 480.59 324.56 478.90 305.66 478.85 286.70 C 479.05 260.71 479.23 234.70 478.71 208.72 C 478.53 184.05 480.52 159.44 479.82 134.77 C 480.89 128.96 480.96 123.03 480.90 117.15 C 480.96 114.90 481.31 112.67 482.14 110.57 Z" fill="#8b2c33" opacity="1.00" stroke="#8b2c33" stroke-width="0.25"/>
<path d="M 483.07 120.01 L 484.01 119.98 C 483.85 190.06 484.28 260.15 483.79 330.22 C 481.81 262.14 483.80 193.91 482.80 125.78 C 482.90 123.85 482.99 121.93 483.07 120.01 Z" fill="#a2676b" opacity="1.00" stroke="#a2676b" stroke-width="0.25"/>
<path d="M 20.89 124.81 C 21.42 124.66 22.49 124.36 23.03 124.20 C 23.77 131.76 22.37 139.38 22.99 146.97 C 19.65 154.19 27.88 150.48 29.84 154.28 C 31.25 159.11 23.05 160.67 24.99 165.99 C 35.47 169.96 29.57 156.04 33.25 152.21 C 44.65 151.21 56.16 152.58 67.54 153.52 C 72.03 160.31 58.92 160.35 64.64 167.29 C 71.66 169.70 84.02 169.80 80.56 158.47 C 91.59 155.08 87.85 169.89 89.11 175.99 C 86.82 183.41 95.48 187.46 100.95 184.09 C 105.65 186.08 102.51 198.20 110.97 194.41 C 112.29 199.48 121.29 206.85 113.33 210.18 C 117.13 213.94 109.04 212.70 111.04 216.89 C 111.86 223.15 120.01 221.60 124.24 221.29 C 132.77 211.56 148.55 217.33 158.00 209.35 C 155.90 207.67 153.28 206.52 151.68 204.29 C 165.43 212.50 185.33 213.08 197.35 201.43 C 200.96 201.14 204.59 201.93 208.19 202.21 C 192.63 218.23 168.48 209.30 149.65 215.70 C 130.49 218.35 111.40 229.04 102.10 246.48 C 100.27 244.66 98.50 242.39 98.97 239.64 C 102.71 240.87 103.49 232.82 99.71 235.76 C 93.02 240.19 89.49 230.87 85.95 226.96 C 88.19 222.41 99.43 226.74 95.97 217.99 C 96.95 208.45 88.76 202.86 87.21 193.78 C 82.63 192.68 79.12 188.50 74.17 189.34 C 60.44 192.43 46.14 191.21 32.24 193.23 C 29.18 200.09 28.91 207.68 29.99 215.01 C 27.28 212.26 25.13 205.31 23.13 200.80 C 21.16 189.90 24.30 178.34 20.24 167.73 C 19.82 153.90 19.95 140.06 20.12 126.23 C 20.31 125.88 20.70 125.17 20.89 124.81 Z" fill="#b22a33" opacity="1.00" stroke="#b22a33" stroke-width="0.25"/>
<path d="M 481.24 370.22 C 481.52 289.02 481.17 207.24 482.80 125.78 C 483.80 193.91 481.81 262.14 483.79 330.22 C 483.84 351.77 485.29 373.50 482.05 394.89 L 481.07 395.12 C 482.38 386.83 481.09 378.52 481.24 370.22 Z" fill="#9a4a4f" opacity="1.00" stroke="#9a4a4f" stroke-width="0.25"/>
<path d="M 150.20 140.77 C 170.45 122.78 206.19 136.91 211.24 162.86 C 213.20 168.36 214.75 159.23 216.72 157.68 C 225.07 154.10 235.35 153.99 244.06 155.98 C 248.41 156.39 251.29 166.85 255.03 159.06 C 260.07 151.87 270.45 157.58 277.30 156.75 C 276.91 157.02 276.14 157.56 275.75 157.83 C 269.23 158.73 260.85 155.66 256.24 161.73 C 253.71 161.05 252.87 169.46 250.31 165.76 C 246.34 153.46 231.50 158.85 222.02 158.16 C 208.03 163.49 216.20 184.00 214.37 195.28 C 213.12 206.67 200.66 213.62 190.06 214.20 C 179.42 217.38 168.17 215.35 157.26 216.25 C 155.36 216.11 151.55 215.84 149.65 215.70 C 168.48 209.30 192.63 218.23 208.19 202.21 C 204.59 201.93 200.96 201.14 197.35 201.43 C 185.33 213.08 165.43 212.50 151.68 204.29 C 145.78 195.02 135.21 187.93 134.93 176.03 C 134.54 163.09 138.11 147.69 150.20 140.77 Z" fill="#aa3740" opacity="1.00" stroke="#aa3740" stroke-width="0.25"/>
<path d="M 298.85 146.90 C 317.04 121.84 363.72 135.03 363.68 166.29 C 362.49 163.50 362.17 160.27 360.15 157.91 C 359.82 155.09 358.03 152.84 356.05 150.94 C 355.30 147.70 353.31 144.77 349.96 143.87 C 338.63 135.26 320.65 132.67 309.16 142.02 C 294.52 148.32 289.22 168.78 294.85 183.05 C 295.51 188.62 298.52 195.18 304.29 196.84 C 314.62 207.23 332.66 211.03 344.92 201.90 C 353.77 196.61 360.26 187.29 362.19 177.19 C 362.73 176.37 363.27 175.56 363.82 174.76 C 364.57 200.90 327.56 222.18 307.19 202.85 C 287.62 192.61 285.69 163.36 298.85 146.90 Z" fill="#9f3f46" opacity="1.00" stroke="#9f3f46" stroke-width="0.25"/>
<path d="M 150.14 146.16 C 163.67 127.45 199.14 135.72 205.92 158.02 C 208.37 167.17 212.00 180.11 203.74 186.77 C 208.23 174.84 208.88 156.62 196.78 149.07 C 196.16 148.46 195.54 147.84 194.93 147.22 C 189.62 137.61 175.48 137.43 165.97 138.01 C 160.37 139.91 155.53 143.69 150.14 146.16 Z" fill="#ba696e" opacity="1.00" stroke="#ba696e" stroke-width="0.25"/>
<path d="M 309.16 142.02 C 320.65 132.67 338.63 135.26 349.96 143.87 C 351.95 146.25 353.96 148.62 356.05 150.94 C 357.09 153.44 358.11 156.03 360.15 157.91 C 361.60 164.24 362.14 170.70 362.19 177.19 C 360.26 187.29 353.77 196.61 344.92 201.90 C 332.66 211.03 314.62 207.23 304.29 196.84 C 300.76 192.51 297.79 187.78 294.85 183.05 C 291.75 167.92 296.00 151.16 309.16 142.02 Z" fill="#b87c7e" opacity="1.00" stroke="#b87c7e" stroke-width="0.25"/>
<path d="M 150.14 146.16 C 155.53 143.69 160.37 139.91 165.97 138.01 C 175.48 137.43 189.62 137.61 194.93 147.22 C 185.72 142.66 175.09 135.87 164.61 140.59 C 150.43 144.32 142.53 159.16 141.99 173.03 C 142.27 181.61 148.58 187.67 152.06 194.95 C 145.38 191.21 142.19 182.88 140.51 175.55 C 137.12 164.42 144.64 154.94 150.14 146.16 Z" fill="#cf9fa2" opacity="1.00" stroke="#cf9fa2" stroke-width="0.25"/>
<path d="M 317.00 140.00 C 336.52 131.24 359.52 148.58 360.01 169.01 C 362.96 191.02 337.88 212.21 317.02 202.93 C 312.79 199.76 304.31 197.61 304.36 191.69 C 311.77 198.70 321.61 205.28 332.41 202.49 C 345.94 199.73 358.15 187.32 357.99 172.99 C 359.47 162.72 353.75 153.18 346.72 146.26 C 336.38 138.49 319.62 137.90 309.70 146.63 C 295.55 156.88 294.27 178.21 304.36 191.69 C 300.96 192.76 301.04 187.61 299.12 185.91 C 289.59 169.68 299.60 146.25 317.00 140.00 Z" fill="#d2afaf" opacity="1.00" stroke="#d2afaf" stroke-width="0.25"/>
<path d="M 164.61 140.59 C 175.09 135.87 185.72 142.66 194.93 147.22 C 195.54 147.84 196.16 148.46 196.78 149.07 C 202.92 158.82 208.43 171.61 202.83 182.88 C 195.34 202.80 167.35 210.22 152.06 194.95 C 148.58 187.67 142.27 181.61 141.99 173.03 C 142.53 159.16 150.43 144.32 164.61 140.59 Z" fill="#ebd4d5" opacity="1.00" stroke="#ebd4d5" stroke-width="0.25"/>
<path d="M 309.70 146.63 C 319.62 137.90 336.38 138.49 346.72 146.26 C 353.75 153.18 359.47 162.72 357.99 172.99 C 358.15 187.32 345.94 199.73 332.41 202.49 C 321.61 205.28 311.77 198.70 304.36 191.69 C 294.27 178.21 295.55 156.88 309.70 146.63 Z" fill="#ecdede" opacity="1.00" stroke="#ecdede" stroke-width="0.25"/>
<path d="M 169.37 142.38 C 192.74 137.53 211.50 167.81 197.96 186.97 C 189.50 198.44 172.78 204.56 159.70 197.25 C 148.43 189.32 141.54 173.29 148.05 160.01 C 152.60 152.00 159.34 142.99 169.37 142.38 Z" fill="#fafaf9" opacity="1.00" stroke="#fafaf9" stroke-width="0.25"/>
<path d="M 294.85 183.05 C 289.22 168.78 294.52 148.32 309.16 142.02 C 296.00 151.16 291.75 167.92 294.85 183.05 Z" fill="#a3585d" opacity="1.00" stroke="#a3585d" stroke-width="0.25"/>
<path d="M 321.37 143.36 C 344.80 135.45 362.85 165.02 352.21 184.25 C 345.86 198.17 325.32 205.66 313.08 194.88 C 301.92 188.92 297.03 173.51 302.17 162.13 C 305.74 153.62 312.54 146.43 321.37 143.36 Z" fill="#fbfbfa" opacity="1.00" stroke="#fbfbfa" stroke-width="0.25"/>
<path d="M 349.96 143.87 C 353.31 144.77 355.30 147.70 356.05 150.94 C 353.96 148.62 351.95 146.25 349.96 143.87 Z" fill="#a75b60" opacity="1.00" stroke="#a75b60" stroke-width="0.25"/>
<path d="M 140.42 157.39 C 143.94 154.13 144.96 146.66 150.14 146.16 C 144.64 154.94 137.12 164.42 140.51 175.55 C 142.19 182.88 145.38 191.21 152.06 194.95 C 159.38 208.23 180.92 208.72 192.04 199.03 C 196.32 195.31 199.87 190.88 203.74 186.77 C 201.33 194.20 194.17 200.20 187.64 204.61 C 175.67 207.90 161.13 209.07 151.71 199.30 C 140.25 188.98 133.60 172.03 140.42 157.39 Z" fill="#b9686e" opacity="1.00" stroke="#b9686e" stroke-width="0.25"/>
<path d="M 196.78 149.07 C 208.88 156.62 208.23 174.84 203.74 186.77 C 199.87 190.88 196.32 195.31 192.04 199.03 C 180.92 208.72 159.38 208.23 152.06 194.95 C 167.35 210.22 195.34 202.80 202.83 182.88 C 208.43 171.61 202.92 158.82 196.78 149.07 Z" fill="#d49ea1" opacity="1.00" stroke="#d49ea1" stroke-width="0.25"/>
<path d="M 14.06 305.18 C 14.00 253.23 13.88 201.29 16.03 149.47 C 17.60 166.04 15.52 183.16 16.99 199.95 C 16.94 200.41 16.86 201.33 16.81 201.78 C 15.03 235.15 16.34 268.68 16.12 302.11 L 16.03 302.91 C 15.37 303.67 14.71 304.42 14.06 305.18 Z" fill="#f1d9d9" opacity="1.00" stroke="#f1d9d9" stroke-width="0.25"/>
<path d="M 356.05 150.94 C 358.03 152.84 359.82 155.09 360.15 157.91 C 358.11 156.03 357.09 153.44 356.05 150.94 Z" fill="#a55b60" opacity="1.00" stroke="#a55b60" stroke-width="0.25"/>
<path d="M 275.75 157.83 C 276.14 157.56 276.91 157.02 277.30 156.75 C 277.73 156.78 278.58 156.86 279.01 156.90 C 287.81 159.18 288.05 169.87 286.20 177.14 C 285.12 187.71 288.00 200.50 298.29 205.69 C 313.71 210.16 328.74 216.87 345.18 215.87 C 331.79 215.92 317.84 217.58 305.28 211.77 C 292.22 210.23 283.00 196.72 285.01 184.02 C 284.76 175.38 287.51 160.28 275.75 157.83 Z" fill="#a43b43" opacity="1.00" stroke="#a43b43" stroke-width="0.25"/>
<path d="M 222.02 158.16 C 231.50 158.85 246.34 153.46 250.31 165.76 C 252.87 169.46 253.71 161.05 256.24 161.73 C 256.12 163.86 256.07 166.01 255.98 168.15 L 255.87 168.95 C 253.28 184.93 255.41 202.26 263.81 216.27 C 267.96 223.13 273.36 229.23 279.55 234.31 C 288.09 242.59 301.70 242.61 312.12 247.87 C 311.60 256.98 318.17 271.56 307.63 276.61 C 302.77 278.36 297.73 279.69 293.14 282.19 C 292.76 281.83 292.00 281.12 291.62 280.76 C 296.58 277.64 302.29 276.44 307.81 274.78 C 315.12 267.08 315.04 249.68 302.65 246.42 C 288.61 242.82 273.83 237.08 265.88 224.09 C 257.01 213.61 255.67 199.81 251.72 187.22 C 248.65 188.06 249.37 195.40 246.21 198.25 C 245.69 185.64 252.45 171.56 244.89 160.09 C 235.36 159.42 220.28 155.02 216.21 167.14 C 215.84 176.53 215.28 185.92 214.37 195.28 C 216.20 184.00 208.03 163.49 222.02 158.16 Z" fill="#a84a51" opacity="1.00" stroke="#a84a51" stroke-width="0.25"/>
<path d="M 256.24 161.73 C 260.85 155.66 269.23 158.73 275.75 157.83 C 287.51 160.28 284.76 175.38 285.01 184.02 C 283.00 196.72 292.22 210.23 305.28 211.77 C 317.84 217.58 331.79 215.92 345.18 215.87 C 345.57 215.93 346.37 216.04 346.77 216.10 C 359.45 220.83 376.15 221.71 384.15 233.98 C 382.39 233.36 380.65 232.70 378.90 232.10 C 364.35 218.72 341.91 217.53 323.08 217.80 C 310.07 214.99 292.44 214.01 286.08 199.96 C 278.34 188.00 288.23 171.14 277.86 160.22 C 272.07 159.96 266.10 158.23 260.43 160.30 C 258.70 162.77 257.54 165.57 255.98 168.15 C 256.07 166.01 256.12 163.86 256.24 161.73 Z" fill="#b66e70" opacity="1.00" stroke="#b66e70" stroke-width="0.25"/>
<path d="M 360.15 157.91 C 362.17 160.27 362.49 163.50 363.68 166.29 C 364.45 168.98 364.20 171.99 363.82 174.76 C 363.27 175.56 362.73 176.37 362.19 177.19 C 362.14 170.70 361.60 164.24 360.15 157.91 Z" fill="#a9565b" opacity="1.00" stroke="#a9565b" stroke-width="0.25"/>
<path d="M 216.21 167.14 C 220.28 155.02 235.36 159.42 244.89 160.09 C 252.45 171.56 245.69 185.64 246.21 198.25 C 245.73 199.41 245.24 200.56 244.78 201.72 C 240.33 213.26 234.26 224.71 224.30 232.41 C 224.79 231.19 225.28 229.98 225.79 228.78 C 227.81 226.18 230.22 223.90 232.08 221.17 C 245.69 206.48 246.55 184.94 245.90 166.10 C 243.65 157.13 230.42 161.34 224.12 161.17 C 212.93 167.45 219.93 183.40 216.67 193.69 C 215.77 209.66 198.05 217.31 183.97 216.78 C 164.21 217.78 143.45 217.29 125.96 227.92 C 109.86 239.50 97.66 258.47 99.93 279.00 C 101.34 286.41 96.99 296.10 102.72 302.19 C 102.82 302.64 103.02 303.53 103.11 303.98 C 100.70 302.61 99.01 300.40 98.09 297.80 C 96.44 281.18 97.13 263.61 104.39 248.28 C 112.63 237.24 121.67 225.04 135.81 221.60 C 142.62 218.53 150.07 217.88 157.26 216.25 C 168.17 215.35 179.42 217.38 190.06 214.20 C 200.66 213.62 213.12 206.67 214.37 195.28 C 215.28 185.92 215.84 176.53 216.21 167.14 Z" fill="#bd767a" opacity="1.00" stroke="#bd767a" stroke-width="0.25"/>
<path d="M 260.43 160.30 C 266.10 158.23 272.07 159.96 277.86 160.22 C 288.23 171.14 278.34 188.00 286.08 199.96 C 292.44 214.01 310.07 214.99 323.08 217.80 C 341.91 217.53 364.35 218.72 378.90 232.10 C 363.80 223.19 345.80 219.11 328.31 219.70 C 315.39 218.14 301.35 217.51 290.43 209.56 C 283.09 203.36 282.09 193.73 280.33 185.15 C 280.32 176.79 283.32 163.27 272.36 161.58 C 266.63 158.96 257.90 162.45 258.50 169.58 C 257.04 188.93 259.93 210.52 273.39 225.52 C 282.62 239.10 300.72 237.16 312.97 246.05 C 318.53 253.92 316.49 265.89 314.96 274.93 C 313.36 278.93 308.64 279.54 305.12 281.01 C 288.18 286.05 273.56 297.96 265.74 313.82 C 262.48 327.07 254.08 339.42 257.27 353.70 C 259.91 361.68 270.66 356.93 276.81 357.92 C 281.51 350.08 279.67 340.05 284.07 332.04 C 289.18 322.92 293.31 312.15 303.32 307.31 C 319.20 299.30 339.10 300.26 354.82 308.20 C 366.20 312.78 370.32 324.42 375.36 334.54 C 379.16 341.89 375.94 351.31 381.27 357.91 C 386.93 356.86 395.40 361.07 399.29 355.25 C 404.66 339.41 392.46 326.39 389.37 311.62 C 387.02 304.96 394.70 302.86 397.71 298.67 C 398.43 283.20 401.84 266.62 394.85 252.10 C 391.29 244.17 384.28 238.67 378.90 232.10 C 380.65 232.70 382.39 233.36 384.15 233.98 C 387.19 237.51 390.20 241.08 393.19 244.66 C 396.70 252.70 401.79 260.63 400.73 269.86 C 399.34 280.37 405.20 293.27 397.09 302.10 C 394.42 305.03 388.77 306.77 391.68 311.89 C 393.91 326.01 406.32 338.10 402.32 353.20 C 400.39 362.95 387.82 361.69 380.36 359.72 C 375.44 355.84 376.41 348.65 375.63 343.19 C 371.57 329.16 365.42 313.85 350.97 308.05 C 336.36 303.48 319.63 301.76 305.32 308.36 C 290.19 317.07 282.24 336.04 281.85 352.72 C 279.97 363.55 264.43 363.39 257.22 358.75 C 255.35 350.75 254.76 342.21 255.95 334.00 C 261.45 328.25 261.82 319.34 263.99 311.91 C 269.93 302.88 276.23 293.38 285.78 287.85 C 294.06 283.41 302.66 279.67 311.58 276.61 C 315.78 268.36 316.24 256.23 312.12 247.87 C 302.64 240.62 289.90 240.16 279.55 234.31 C 273.36 229.23 267.96 223.13 263.81 216.27 C 258.98 200.93 256.06 185.15 255.87 168.95 L 255.98 168.15 C 257.54 165.57 258.70 162.77 260.43 160.30 Z" fill="#cd9e9f" opacity="1.00" stroke="#cd9e9f" stroke-width="0.25"/>
<path d="M 224.12 161.17 C 230.42 161.34 243.65 157.13 245.90 166.10 C 246.55 184.94 245.69 206.48 232.08 221.17 C 242.02 205.81 245.42 187.23 244.86 169.15 C 243.57 158.67 226.52 159.09 221.30 166.32 C 215.70 179.86 223.47 197.60 211.79 208.82 C 198.31 221.48 177.77 218.30 161.00 219.02 C 150.65 220.21 140.57 223.26 130.85 226.92 C 117.59 234.45 107.87 247.65 103.01 262.00 C 101.11 273.12 100.60 284.60 101.10 295.89 C 102.15 302.99 114.42 302.65 112.03 311.03 C 113.99 316.13 108.69 318.07 106.23 321.20 C 111.86 314.82 111.81 304.54 102.72 302.19 C 96.99 296.10 101.34 286.41 99.93 279.00 C 97.66 258.47 109.86 239.50 125.96 227.92 C 143.45 217.29 164.21 217.78 183.97 216.78 C 198.05 217.31 215.77 209.66 216.67 193.69 C 219.93 183.40 212.93 167.45 224.12 161.17 Z" fill="#d1a3a4" opacity="1.00" stroke="#d1a3a4" stroke-width="0.25"/>
<path d="M 258.50 169.58 C 257.90 162.45 266.63 158.96 272.36 161.58 C 283.32 163.27 280.32 176.79 280.33 185.15 C 282.09 193.73 283.09 203.36 290.43 209.56 C 301.35 217.51 315.39 218.14 328.31 219.70 C 345.80 219.11 363.80 223.19 378.90 232.10 C 384.28 238.67 391.29 244.17 394.85 252.10 C 401.84 266.62 398.43 283.20 397.71 298.67 C 394.70 302.86 387.02 304.96 389.37 311.62 C 392.46 326.39 404.66 339.41 399.29 355.25 C 395.40 361.07 386.93 356.86 381.27 357.91 C 375.94 351.31 379.16 341.89 375.36 334.54 C 370.32 324.42 366.20 312.78 354.82 308.20 C 339.10 300.26 319.20 299.30 303.32 307.31 C 293.31 312.15 289.18 322.92 284.07 332.04 C 279.67 340.05 281.51 350.08 276.81 357.92 C 270.66 356.93 259.91 361.68 257.27 353.70 C 254.08 339.42 262.48 327.07 265.74 313.82 C 273.56 297.96 288.18 286.05 305.12 281.01 C 308.64 279.54 313.36 278.93 314.96 274.93 C 316.49 265.89 318.53 253.92 312.97 246.05 C 300.72 237.16 282.62 239.10 273.39 225.52 C 259.93 210.52 257.04 188.93 258.50 169.58 Z" fill="#e6cdcd" opacity="1.00" stroke="#e6cdcd" stroke-width="0.25"/>
<path d="M 221.30 166.32 C 226.52 159.09 243.57 158.67 244.86 169.15 C 245.42 187.23 242.02 205.81 232.08 221.17 C 230.22 223.90 227.81 226.18 225.79 228.78 C 214.80 238.73 199.04 239.21 187.13 247.06 C 183.39 256.11 183.14 267.48 187.73 276.26 C 191.63 278.98 196.60 280.24 201.00 282.16 C 218.51 290.05 233.23 304.77 240.14 322.78 C 240.27 333.10 247.61 342.34 243.87 352.88 C 242.04 361.95 230.08 356.67 223.74 358.25 C 218.10 353.70 219.81 345.23 218.15 338.95 C 216.17 322.02 202.93 309.05 187.32 303.57 C 179.31 301.38 169.48 300.23 161.72 303.70 C 144.36 305.08 132.91 319.94 126.25 334.61 C 121.72 341.17 125.18 350.26 120.82 356.82 C 115.11 360.35 105.47 360.53 101.20 354.64 C 100.25 346.19 100.59 337.71 103.92 329.83 C 104.81 326.98 105.33 324.04 106.23 321.20 C 108.69 318.07 113.99 316.13 112.03 311.03 C 114.42 302.65 102.15 302.99 101.10 295.89 C 100.60 284.60 101.11 273.12 103.01 262.00 C 107.87 247.65 117.59 234.45 130.85 226.92 C 140.57 223.26 150.65 220.21 161.00 219.02 C 177.77 218.30 198.31 221.48 211.79 208.82 C 223.47 197.60 215.70 179.86 221.30 166.32 Z" fill="#e7caca" opacity="1.00" stroke="#e7caca" stroke-width="0.25"/>
<path d="M 264.32 164.20 C 269.39 163.35 280.43 163.68 277.98 171.99 C 277.29 188.01 278.77 207.95 294.97 216.02 C 306.08 217.57 316.48 222.98 327.99 222.00 C 343.37 220.37 357.95 226.12 372.22 230.76 C 382.39 238.09 392.97 247.32 395.74 260.19 C 396.36 271.00 395.42 282.02 396.74 292.70 C 398.18 301.93 383.43 301.41 386.00 311.02 C 391.03 324.81 400.10 338.26 396.80 353.75 C 393.87 358.09 387.56 355.50 383.19 355.89 C 379.36 351.29 380.91 344.75 379.63 339.31 C 374.44 327.65 370.76 313.77 358.05 307.93 C 343.16 297.20 322.90 297.22 306.08 303.10 C 292.39 309.42 283.97 322.74 279.53 336.70 C 276.83 341.94 279.30 348.87 275.79 353.80 C 268.90 358.91 256.55 355.44 258.98 344.98 C 262.09 326.63 268.49 307.59 282.95 294.95 C 288.43 291.84 294.07 289.02 299.09 285.15 C 305.22 283.41 311.93 282.20 316.66 277.54 C 320.70 268.69 319.04 258.56 317.71 249.28 C 310.07 236.24 292.12 238.70 281.02 230.00 C 268.56 219.80 261.01 203.38 261.68 187.30 C 262.21 180.08 257.28 169.29 264.32 164.20 Z" fill="#f5ecec" opacity="1.00" stroke="#f5ecec" stroke-width="0.25"/>
<path d="M 225.32 165.19 C 230.45 166.13 238.20 162.24 241.83 167.30 C 242.48 187.06 241.01 209.30 226.31 224.29 C 218.12 236.12 201.99 236.53 190.05 242.05 C 180.43 246.19 182.10 259.17 182.25 267.71 C 181.62 274.14 185.49 280.65 192.17 281.70 C 214.61 288.73 234.76 306.94 239.37 330.67 C 242.15 338.50 244.77 348.69 239.79 355.91 C 234.68 355.55 228.34 357.75 224.14 353.80 C 222.29 348.36 221.15 342.75 220.93 337.01 C 217.50 323.94 209.87 311.53 197.04 305.91 C 178.49 294.58 152.89 298.62 137.19 313.18 C 129.19 324.09 119.96 335.51 121.06 350.01 C 121.20 358.23 106.31 359.32 104.26 351.67 C 102.86 339.00 106.12 324.96 114.73 315.67 C 120.38 303.29 101.71 302.43 103.99 291.00 C 104.04 273.57 104.29 253.78 118.14 241.19 C 122.82 232.41 132.40 227.46 141.92 225.81 C 161.85 218.63 183.74 224.74 203.71 217.71 C 214.07 211.84 224.04 200.62 220.60 187.76 C 222.45 180.76 218.45 170.21 225.32 165.19 Z" fill="#f5ecec" opacity="1.00" stroke="#f5ecec" stroke-width="0.25"/>
<path d="M 20.24 167.73 C 24.30 178.34 21.16 189.90 23.13 200.80 C 24.04 220.55 21.68 240.24 22.03 259.95 C 22.50 264.81 22.01 269.71 20.22 274.26 C 20.16 268.40 20.07 262.53 19.28 256.73 C 18.74 242.26 18.85 227.76 19.31 213.30 C 21.32 198.26 19.12 182.87 20.24 167.73 Z" fill="#ba3a43" opacity="1.00" stroke="#ba3a43" stroke-width="0.25"/>
<path d="M 263.81 216.27 C 255.41 202.26 253.28 184.93 255.87 168.95 C 256.06 185.15 258.98 200.93 263.81 216.27 Z" fill="#b17578" opacity="1.00" stroke="#b17578" stroke-width="0.25"/>
<path d="M 294.85 183.05 C 297.79 187.78 300.76 192.51 304.29 196.84 C 298.52 195.18 295.51 188.62 294.85 183.05 Z" fill="#a45a5e" opacity="1.00" stroke="#a45a5e" stroke-width="0.25"/>
<path d="M 246.21 198.25 C 249.37 195.40 248.65 188.06 251.72 187.22 C 255.67 199.81 257.01 213.61 265.88 224.09 C 273.83 237.08 288.61 242.82 302.65 246.42 C 315.04 249.68 315.12 267.08 307.81 274.78 C 302.29 276.44 296.58 277.64 291.62 280.76 C 275.24 288.62 263.18 304.22 257.24 321.16 C 255.23 327.20 254.20 333.82 250.35 339.09 C 245.24 324.60 241.83 307.94 229.27 297.72 C 222.45 290.09 214.26 283.96 206.01 277.99 C 201.45 274.40 192.72 275.76 190.79 269.14 C 189.44 261.52 187.50 249.27 198.14 247.26 C 213.76 243.18 229.22 235.04 237.58 220.63 C 240.93 214.84 245.97 208.83 244.78 201.72 C 245.24 200.56 245.73 199.41 246.21 198.25 Z" fill="#b02932" opacity="1.00" stroke="#b02932" stroke-width="0.25"/>
<path d="M 32.24 193.23 C 46.14 191.21 60.44 192.43 74.17 189.34 C 79.12 188.50 82.63 192.68 87.21 193.78 C 88.76 202.86 96.95 208.45 95.97 217.99 C 99.43 226.74 88.19 222.41 85.95 226.96 C 89.49 230.87 93.02 240.19 99.71 235.76 C 103.49 232.82 102.71 240.87 98.97 239.64 C 98.50 242.39 100.27 244.66 102.10 246.48 C 101.75 249.79 100.45 252.91 98.88 255.81 C 93.80 254.71 93.80 262.73 88.34 260.45 C 85.39 265.98 78.23 263.57 73.14 264.68 C 62.56 262.41 51.78 264.30 41.09 264.08 C 37.88 264.54 38.54 268.81 36.70 270.74 C 33.40 272.66 29.35 273.27 25.67 272.22 C 23.43 268.65 24.18 263.73 22.03 259.95 C 21.68 240.24 24.04 220.55 23.13 200.80 C 25.13 205.31 27.28 212.26 29.99 215.01 C 28.91 207.68 29.18 200.09 32.24 193.23 Z" fill="#ba2a34" opacity="1.00" stroke="#ba2a34" stroke-width="0.25"/>
<path d="M 16.99 199.95 L 17.98 200.00 C 16.82 238.36 20.43 277.08 16.17 315.22 C 16.10 311.11 16.05 307.01 16.03 302.91 L 16.12 302.11 C 18.00 268.77 16.72 235.21 16.81 201.78 C 16.86 201.33 16.94 200.41 16.99 199.95 Z" fill="#de9899" opacity="1.00" stroke="#de9899" stroke-width="0.25"/>
<path d="M 16.12 302.11 C 16.34 268.68 15.03 235.15 16.81 201.78 C 16.72 235.21 18.00 268.77 16.12 302.11 Z" fill="#e6b5b5" opacity="1.00" stroke="#e6b5b5" stroke-width="0.25"/>
<path d="M 224.30 232.41 C 234.26 224.71 240.33 213.26 244.78 201.72 C 245.97 208.83 240.93 214.84 237.58 220.63 C 229.22 235.04 213.76 243.18 198.14 247.26 C 187.50 249.27 189.44 261.52 190.79 269.14 C 192.72 275.76 201.45 274.40 206.01 277.99 C 214.26 283.96 222.45 290.09 229.27 297.72 C 241.83 307.94 245.24 324.60 250.35 339.09 C 254.20 333.82 255.23 327.20 257.24 321.16 C 263.18 304.22 275.24 288.62 291.62 280.76 C 292.00 281.12 292.76 281.83 293.14 282.19 C 290.68 284.06 288.21 285.93 285.78 287.85 C 276.23 293.38 269.93 302.88 263.99 311.91 C 260.86 319.01 257.19 326.26 255.95 334.00 C 251.82 341.10 253.36 352.66 256.40 360.58 C 263.92 365.65 283.37 365.76 282.73 352.89 C 282.54 346.55 283.40 339.85 287.12 334.54 C 287.95 341.23 284.76 348.11 285.04 355.01 C 287.00 365.35 274.08 365.73 267.22 365.25 C 259.30 367.62 254.59 362.93 251.00 356.77 C 244.32 368.62 222.41 369.31 216.03 357.66 C 223.54 363.80 236.58 367.18 245.04 360.09 C 249.17 353.57 246.95 345.32 247.78 338.18 C 242.19 327.37 241.42 314.33 232.96 305.03 C 223.85 294.77 213.89 283.62 200.16 279.91 C 197.35 275.93 191.47 275.35 187.91 272.01 C 188.85 263.61 184.70 252.05 193.33 246.41 C 200.67 243.72 208.90 243.24 215.10 237.95 C 218.29 236.33 221.54 234.71 224.30 232.41 Z" fill="#b74951" opacity="1.00" stroke="#b74951" stroke-width="0.25"/>
<path d="M 346.77 216.10 C 358.19 214.25 368.82 221.05 379.32 224.70 C 386.35 228.77 389.72 236.97 395.66 242.34 C 406.44 253.33 403.09 270.13 404.61 283.92 C 403.45 290.05 406.58 297.10 402.62 302.60 C 399.46 305.22 394.20 308.55 396.61 313.38 C 403.14 328.37 410.13 345.79 404.20 362.14 C 397.04 366.25 388.42 363.82 380.61 364.47 C 369.14 362.33 371.32 348.81 369.62 340.34 C 365.02 329.37 360.47 316.27 348.37 311.61 C 342.56 308.82 335.99 308.34 329.83 306.66 C 343.21 304.21 356.39 311.07 364.59 321.34 C 368.52 330.24 373.95 338.97 373.91 349.06 C 373.83 354.05 375.59 361.88 382.02 362.00 C 389.35 362.81 398.57 364.01 403.82 357.67 C 403.30 349.16 406.56 339.42 401.25 331.89 C 397.55 325.47 396.77 317.47 391.68 311.89 C 393.12 307.26 397.45 304.90 400.67 301.65 C 404.83 294.23 402.27 285.07 403.08 277.00 C 403.57 265.92 402.16 252.23 393.19 244.66 C 390.20 241.08 387.19 237.51 384.15 233.98 C 376.15 221.71 359.45 220.83 346.77 216.10 Z" fill="#a44148" opacity="1.00" stroke="#a44148" stroke-width="0.25"/>
<path d="M 102.10 246.48 C 111.40 229.04 130.49 218.35 149.65 215.70 C 151.55 215.84 155.36 216.11 157.26 216.25 C 150.07 217.88 142.62 218.53 135.81 221.60 C 121.67 225.04 112.63 237.24 104.39 248.28 C 97.13 263.61 96.44 281.18 98.09 297.80 C 98.01 299.27 97.92 300.75 97.82 302.22 C 93.46 294.17 97.26 283.81 95.95 275.00 C 95.86 268.52 94.91 261.44 98.88 255.81 C 100.45 252.91 101.75 249.79 102.10 246.48 Z" fill="#b3474f" opacity="1.00" stroke="#b3474f" stroke-width="0.25"/>
<path d="M 187.13 247.06 C 199.04 239.21 214.80 238.73 225.79 228.78 C 225.28 229.98 224.79 231.19 224.30 232.41 C 221.54 234.71 218.29 236.33 215.10 237.95 C 206.58 241.04 197.17 242.53 189.30 247.24 C 186.25 254.79 184.69 264.20 187.91 272.01 C 189.49 277.47 195.75 277.87 200.16 279.91 C 200.37 280.47 200.79 281.60 201.00 282.16 C 196.60 280.24 191.63 278.98 187.73 276.26 C 183.14 267.48 183.39 256.11 187.13 247.06 Z" fill="#d79fa0" opacity="1.00" stroke="#d79fa0" stroke-width="0.25"/>
<path d="M 279.55 234.31 C 289.90 240.16 302.64 240.62 312.12 247.87 C 301.70 242.61 288.09 242.59 279.55 234.31 Z" fill="#bc7278" opacity="1.00" stroke="#bc7278" stroke-width="0.25"/>
<path d="M 189.30 247.24 C 197.17 242.53 206.58 241.04 215.10 237.95 C 208.90 243.24 200.67 243.72 193.33 246.41 C 184.70 252.05 188.85 263.61 187.91 272.01 C 184.69 264.20 186.25 254.79 189.30 247.24 Z" fill="#c57679" opacity="1.00" stroke="#c57679" stroke-width="0.25"/>
<path d="M 155.36 242.39 C 159.97 242.00 166.90 246.39 165.02 252.00 C 164.61 262.20 167.99 277.99 154.32 281.30 C 143.99 282.12 136.91 295.18 125.96 291.06 C 116.99 286.16 123.70 275.21 125.07 268.05 C 126.19 253.58 141.45 242.83 155.36 242.39 Z" fill="#e9cacb" opacity="1.00" stroke="#e9cacb" stroke-width="0.25"/>
<path d="M 344.39 242.38 C 356.59 240.61 369.66 246.65 375.25 257.74 C 379.93 266.01 380.51 275.56 381.48 284.80 C 382.54 290.16 376.56 295.44 371.39 293.52 C 365.13 293.29 361.33 287.50 355.99 285.04 C 350.61 282.22 344.25 280.51 340.21 275.73 C 336.45 266.64 338.34 256.59 338.05 247.06 C 338.92 244.48 341.74 242.80 344.39 242.38 Z" fill="#ecd7d7" opacity="1.00" stroke="#ecd7d7" stroke-width="0.25"/>
<path d="M 340.94 247.95 C 342.49 243.73 350.18 243.45 351.74 246.01 C 346.68 244.07 340.13 248.17 342.00 254.00 C 342.47 261.21 339.63 269.92 345.28 275.74 C 351.89 280.08 359.98 281.82 366.33 286.62 C 368.87 288.08 371.56 290.72 374.72 289.83 C 378.60 286.90 377.59 281.43 378.12 277.14 C 379.39 278.99 381.11 289.11 375.66 290.76 C 370.35 292.58 365.83 289.12 362.16 285.84 C 354.84 280.40 341.04 279.66 340.40 268.64 C 340.20 261.85 338.88 254.47 340.94 247.95 Z" fill="#dfbbbb" opacity="1.00" stroke="#dfbbbb" stroke-width="0.25"/>
<path d="M 155.35 245.39 C 165.85 244.66 162.31 260.12 161.92 265.99 C 163.77 275.73 152.71 278.06 146.28 281.22 C 139.49 283.40 134.94 291.13 127.22 289.88 C 121.13 284.73 125.95 275.88 126.47 269.35 C 128.74 255.89 142.02 245.77 155.35 245.39 Z" fill="#d49c9f" opacity="1.00" stroke="#d49c9f" stroke-width="0.25"/>
<path d="M 393.19 244.66 C 402.16 252.23 403.57 265.92 403.08 277.00 C 402.27 285.07 404.83 294.23 400.67 301.65 C 397.45 304.90 393.12 307.26 391.68 311.89 C 388.77 306.77 394.42 305.03 397.09 302.10 C 405.20 293.27 399.34 280.37 400.73 269.86 C 401.79 260.63 396.70 252.70 393.19 244.66 Z" fill="#b27273" opacity="1.00" stroke="#b27273" stroke-width="0.25"/>
<path d="M 342.00 254.00 C 340.13 248.17 346.68 244.07 351.74 246.01 C 352.48 246.63 353.23 247.26 353.98 247.88 C 350.59 248.03 346.13 246.78 344.17 250.35 C 344.74 258.35 341.22 268.89 347.77 275.21 C 355.74 279.72 364.98 281.88 372.18 287.84 C 375.92 288.85 376.09 281.79 376.03 279.97 C 375.54 271.91 372.53 263.74 367.77 257.27 C 363.88 253.16 358.45 251.22 353.98 247.88 C 368.64 249.20 375.06 264.08 377.69 276.39 L 378.12 277.14 C 377.59 281.43 378.60 286.90 374.72 289.83 C 371.56 290.72 368.87 288.08 366.33 286.62 C 359.98 281.82 351.89 280.08 345.28 275.74 C 339.63 269.92 342.47 261.21 342.00 254.00 Z" fill="#c68f91" opacity="1.00" stroke="#c68f91" stroke-width="0.25"/>
<path d="M 351.74 246.01 C 366.95 246.08 378.75 261.71 377.69 276.39 C 375.06 264.08 368.64 249.20 353.98 247.88 C 353.23 247.26 352.48 246.63 351.74 246.01 Z" fill="#d8b6b7" opacity="1.00" stroke="#d8b6b7" stroke-width="0.25"/>
<path d="M 156.27 247.52 C 165.01 249.44 157.67 263.77 159.95 269.93 C 156.03 277.96 145.12 278.21 138.70 283.68 C 135.51 285.96 129.64 290.78 126.11 286.74 C 125.14 276.07 128.63 265.26 134.43 256.36 C 140.92 251.41 147.93 247.31 156.27 247.52 Z" fill="#c16e73" opacity="1.00" stroke="#c16e73" stroke-width="0.25"/>
<path d="M 312.12 247.87 C 316.24 256.23 315.78 268.36 311.58 276.61 C 302.66 279.67 294.06 283.41 285.78 287.85 C 288.21 285.93 290.68 284.06 293.14 282.19 C 297.73 279.69 302.77 278.36 307.63 276.61 C 318.17 271.56 311.60 256.98 312.12 247.87 Z" fill="#ba7176" opacity="1.00" stroke="#ba7176" stroke-width="0.25"/>
<path d="M 344.17 250.35 C 346.13 246.78 350.59 248.03 353.98 247.88 C 358.45 251.22 363.88 253.16 367.77 257.27 C 372.53 263.74 375.54 271.91 376.03 279.97 C 376.09 281.79 375.92 288.85 372.18 287.84 C 364.98 281.88 355.74 279.72 347.77 275.21 C 341.22 268.89 344.74 258.35 344.17 250.35 Z" fill="#b05f64" opacity="1.00" stroke="#b05f64" stroke-width="0.25"/>
<path d="M 155.34 249.40 C 158.31 248.20 158.15 252.31 157.99 254.16 C 154.82 247.28 145.92 252.98 141.95 255.94 C 134.77 258.64 133.64 266.36 130.28 272.28 C 129.48 259.19 143.17 249.56 155.34 249.40 Z" fill="#b64851" opacity="1.00" stroke="#b64851" stroke-width="0.25"/>
<path d="M 347.25 250.07 C 355.43 248.54 361.94 254.38 367.60 259.35 C 370.19 266.52 373.51 273.46 374.95 280.98 C 374.37 283.35 372.53 286.47 370.01 283.98 C 362.52 279.20 352.27 277.51 346.60 270.37 C 346.65 264.04 343.87 255.74 347.25 250.07 Z" fill="#a52f38" opacity="1.00" stroke="#a52f38" stroke-width="0.25"/>
<path d="M 141.95 255.94 C 145.92 252.98 154.82 247.28 157.99 254.16 C 158.23 256.71 158.18 259.25 157.84 261.78 C 157.00 275.40 141.00 275.57 132.66 282.62 C 126.46 285.28 130.40 277.20 130.06 273.90 C 130.11 273.50 130.23 272.69 130.28 272.28 C 133.64 266.36 134.77 258.64 141.95 255.94 Z" fill="#b32f38" opacity="1.00" stroke="#b32f38" stroke-width="0.25"/>
<path d="M 88.34 260.45 C 93.80 262.73 93.80 254.71 98.88 255.81 C 94.91 261.44 95.86 268.52 95.95 275.00 C 97.26 283.81 93.46 294.17 97.82 302.22 C 99.91 305.62 105.45 306.83 106.06 310.99 C 103.26 319.32 98.89 327.04 95.82 335.28 C 95.60 332.05 94.22 328.45 91.06 327.10 C 88.27 320.79 96.54 317.97 95.02 311.94 C 95.93 295.62 68.66 312.26 66.89 297.04 C 61.70 299.57 68.07 313.29 58.16 309.75 C 51.89 308.15 46.00 308.32 40.22 311.01 C 41.02 302.66 35.47 313.01 31.37 310.57 C 25.39 308.46 29.76 320.01 24.95 321.02 C 22.88 320.94 21.68 318.75 20.04 317.71 C 20.12 303.22 19.69 288.73 20.22 274.26 C 22.01 269.71 22.50 264.81 22.03 259.95 C 24.18 263.73 23.43 268.65 25.67 272.22 C 29.35 273.27 33.40 272.66 36.70 270.74 C 38.54 268.81 37.88 264.54 41.09 264.08 C 51.78 264.30 62.56 262.41 73.14 264.68 C 78.23 263.57 85.39 265.98 88.34 260.45 Z" fill="#c12d38" opacity="1.00" stroke="#c12d38" stroke-width="0.25"/>
<path d="M 19.28 256.73 C 20.07 262.53 20.16 268.40 20.22 274.26 C 19.69 288.73 20.12 303.22 20.04 317.71 C 18.42 327.95 18.79 338.40 19.23 348.73 C 19.08 357.04 18.73 365.38 19.15 373.70 C 19.17 385.69 18.49 397.73 19.29 409.71 C 18.57 432.21 19.40 454.71 18.76 477.21 C 16.64 403.99 18.66 330.18 19.28 256.73 Z" fill="#d45661" opacity="1.00" stroke="#d45661" stroke-width="0.25"/>
<path d="M 132.66 282.62 C 141.00 275.57 157.00 275.40 157.84 261.78 C 160.62 269.01 155.41 275.27 148.70 276.72 C 141.22 278.54 135.85 286.32 127.99 286.00 C 128.81 282.36 126.30 276.39 130.06 273.90 C 130.40 277.20 126.46 285.28 132.66 282.62 Z" fill="#b3474e" opacity="1.00" stroke="#b3474e" stroke-width="0.25"/>
<path d="M 187.91 272.01 C 191.47 275.35 197.35 275.93 200.16 279.91 C 195.75 277.87 189.49 277.47 187.91 272.01 Z" fill="#c47479" opacity="1.00" stroke="#c47479" stroke-width="0.25"/>
<path d="M 200.16 279.91 C 213.89 283.62 223.85 294.77 232.96 305.03 C 241.42 314.33 242.19 327.37 247.78 338.18 C 246.95 345.32 249.17 353.57 245.04 360.09 C 236.32 360.91 220.81 365.12 217.84 353.13 C 217.18 341.98 215.23 331.11 209.57 321.34 C 203.12 315.80 196.84 309.13 188.59 306.38 C 173.27 306.04 155.67 302.88 142.95 313.88 C 132.26 324.26 124.34 338.56 125.94 353.99 C 124.52 364.35 111.81 362.96 104.08 360.95 C 93.61 358.75 99.22 344.47 98.18 337.16 C 101.39 329.19 103.53 320.65 108.49 313.50 C 111.21 308.62 105.56 306.79 103.11 303.98 C 103.02 303.53 102.82 302.64 102.72 302.19 C 111.81 304.54 111.86 314.82 106.23 321.20 C 105.33 324.04 104.81 326.98 103.92 329.83 C 97.85 337.50 94.30 354.21 104.45 359.59 C 109.84 359.06 117.62 362.90 121.83 357.76 C 126.86 351.15 124.49 342.32 126.25 334.61 C 132.91 319.94 144.36 305.08 161.72 303.70 C 170.26 303.97 178.78 302.73 187.32 303.57 C 202.93 309.05 216.17 322.02 218.15 338.95 C 219.81 345.23 218.10 353.70 223.74 358.25 C 230.16 361.58 246.56 363.52 245.61 351.61 C 248.48 341.34 243.07 332.20 240.14 322.78 C 233.23 304.77 218.51 290.05 201.00 282.16 C 200.79 281.60 200.37 280.47 200.16 279.91 Z" fill="#cc878b" opacity="1.00" stroke="#cc878b" stroke-width="0.25"/>
<path d="M 404.61 283.92 C 409.70 284.79 406.30 293.18 410.22 295.81 C 414.52 296.56 419.25 295.28 423.28 296.67 C 422.99 308.97 441.21 301.70 446.74 306.30 C 450.27 312.74 442.21 312.44 439.02 312.12 C 433.24 310.46 430.60 316.51 427.07 319.56 C 434.50 320.33 429.30 331.22 434.22 334.81 C 438.35 335.34 442.53 334.87 446.70 335.14 C 448.34 338.24 449.69 342.03 454.58 340.46 C 461.87 344.95 453.99 353.33 456.82 359.07 C 461.23 360.71 458.90 366.22 462.51 368.49 C 465.02 370.58 463.74 375.79 467.99 376.01 C 474.10 376.74 478.02 382.93 476.04 388.95 C 479.77 394.99 471.12 392.87 471.96 397.07 C 475.26 397.73 477.30 394.54 477.58 391.66 C 478.24 383.72 479.60 375.88 480.65 367.99 C 480.80 368.55 481.09 369.66 481.24 370.22 C 481.09 378.52 482.38 386.83 481.07 395.12 C 479.73 399.32 477.95 403.47 477.91 407.96 C 473.11 416.38 469.85 425.81 463.35 433.17 C 458.71 429.81 457.13 437.37 454.68 439.89 C 451.01 440.09 445.89 437.54 449.38 433.57 C 449.42 425.76 440.04 423.55 436.92 417.06 C 431.52 414.61 434.87 395.25 431.98 408.98 C 434.74 417.49 423.55 414.55 419.27 414.87 C 414.80 410.71 414.25 397.94 423.28 399.18 C 423.53 395.75 425.99 384.73 419.11 385.08 C 415.99 386.80 408.24 390.99 407.97 385.14 C 409.97 383.92 412.86 384.20 414.24 382.09 C 409.23 381.16 396.70 375.90 399.96 386.91 C 397.56 383.53 392.83 384.08 390.46 380.59 C 382.18 381.54 385.62 372.76 385.01 368.14 C 391.77 369.26 400.82 369.76 404.20 362.14 C 410.13 345.79 403.14 328.37 396.61 313.38 C 394.20 308.55 399.46 305.22 402.62 302.60 C 406.58 297.10 403.45 290.05 404.61 283.92 Z" fill="#a3252e" opacity="1.00" stroke="#a3252e" stroke-width="0.25"/>
<path d="M 58.16 309.75 C 68.07 313.29 61.70 299.57 66.89 297.04 C 68.66 312.26 95.93 295.62 95.02 311.94 C 96.54 317.97 88.27 320.79 91.06 327.10 C 94.22 328.45 95.60 332.05 95.82 335.28 C 97.75 344.10 90.72 359.60 102.98 363.01 C 110.58 365.55 123.76 369.09 127.00 359.06 C 129.21 352.95 127.34 346.18 128.68 339.86 C 129.43 340.61 130.19 341.35 130.97 342.08 C 132.98 347.98 131.18 353.97 130.90 359.93 C 133.98 359.69 135.69 357.53 137.11 355.06 C 141.04 354.31 143.74 351.71 145.38 348.13 C 153.95 347.47 162.46 349.26 171.01 347.96 C 176.78 347.46 180.53 354.51 180.58 359.46 C 185.87 359.50 192.76 359.20 192.02 365.93 C 191.09 355.25 192.80 362.87 193.98 365.19 C 199.22 375.60 201.76 386.68 201.53 398.43 C 207.78 407.01 200.16 422.13 207.65 428.82 C 207.16 421.32 216.14 424.38 220.99 423.96 C 225.01 423.60 223.58 428.76 224.57 431.46 C 233.36 433.57 242.18 431.22 250.97 430.94 C 264.80 426.88 249.22 453.19 263.33 447.42 C 260.32 441.42 269.32 436.46 271.44 442.46 C 270.29 448.70 275.66 447.56 279.43 448.58 C 278.21 452.06 284.43 462.70 279.09 463.00 C 278.02 458.96 282.28 447.19 274.22 449.07 C 271.02 454.29 273.92 461.50 273.57 467.52 C 271.70 468.40 268.99 469.01 270.16 471.67 C 271.97 472.66 278.01 473.55 274.13 476.01 C 276.31 476.44 278.52 476.78 280.75 476.86 C 283.26 477.48 285.70 478.16 288.21 478.87 C 272.88 478.83 257.55 477.96 242.22 477.80 C 236.00 475.73 226.41 480.33 222.88 473.06 C 219.45 472.01 214.33 471.98 216.08 467.22 C 222.78 463.32 232.71 469.73 239.26 466.20 C 237.51 466.12 234.00 465.96 232.25 465.88 C 230.13 462.64 239.07 466.90 239.88 463.69 C 239.99 459.18 240.40 454.67 239.84 450.20 C 228.44 447.90 214.31 451.25 205.94 441.10 C 199.29 440.42 200.24 432.03 194.11 430.78 C 190.59 427.76 186.55 432.15 182.73 429.52 C 180.25 426.62 183.98 419.42 181.06 416.86 C 179.74 421.03 183.79 428.40 178.30 430.36 C 175.31 431.53 175.96 435.29 174.75 437.72 C 171.08 440.00 166.31 438.79 162.27 438.86 C 159.40 437.43 159.33 433.64 162.59 432.71 C 169.19 433.56 167.56 427.15 169.06 423.22 C 169.65 420.16 172.12 413.70 167.51 412.58 C 156.66 412.27 157.02 399.59 149.56 394.51 C 145.18 395.70 143.88 392.55 142.15 389.86 C 136.94 389.07 131.36 380.92 127.05 388.14 C 117.70 389.60 108.14 383.26 98.29 384.74 C 93.89 378.60 87.45 374.94 80.23 372.77 C 77.83 366.53 79.37 358.97 75.74 353.21 C 70.35 351.72 62.45 354.15 62.54 346.35 C 56.71 343.05 48.15 344.88 41.39 343.60 C 38.76 343.28 41.86 336.80 38.30 338.13 C 39.45 344.17 31.81 344.93 31.36 350.43 C 23.08 354.71 26.70 366.57 24.86 373.97 C 20.66 374.88 23.09 368.26 22.63 365.66 C 22.69 359.92 21.18 354.11 19.23 348.73 C 18.79 338.40 18.42 327.95 20.04 317.71 C 21.68 318.75 22.88 320.94 24.95 321.02 C 29.76 320.01 25.39 308.46 31.37 310.57 C 35.47 313.01 41.02 302.66 40.22 311.01 C 46.00 308.32 51.89 308.15 58.16 309.75 Z" fill="#ca2d3a" opacity="1.00" stroke="#ca2d3a" stroke-width="0.25"/>
<path d="M 98.09 297.80 C 99.01 300.40 100.70 302.61 103.11 303.98 C 105.56 306.79 111.21 308.62 108.49 313.50 C 103.53 320.65 101.39 329.19 98.18 337.16 C 99.22 344.47 93.61 358.75 104.08 360.95 C 111.81 362.96 124.52 364.35 125.94 353.99 C 124.34 338.56 132.26 324.26 142.95 313.88 C 155.67 302.88 173.27 306.04 188.59 306.38 C 196.84 309.13 203.12 315.80 209.57 321.34 C 215.23 331.11 217.18 341.98 217.84 353.13 C 220.81 365.12 236.32 360.91 245.04 360.09 C 236.58 367.18 223.54 363.80 216.03 357.66 C 215.18 342.98 213.53 325.91 200.66 316.41 C 186.28 302.82 163.82 304.97 147.33 313.32 C 139.79 320.93 131.63 329.28 128.68 339.86 C 127.34 346.18 129.21 352.95 127.00 359.06 C 123.76 369.09 110.58 365.55 102.98 363.01 C 90.72 359.60 97.75 344.10 95.82 335.28 C 98.89 327.04 103.26 319.32 106.06 310.99 C 105.45 306.83 99.91 305.62 97.82 302.22 C 97.92 300.75 98.01 299.27 98.09 297.80 Z" fill="#c0565f" opacity="1.00" stroke="#c0565f" stroke-width="0.25"/>
<path d="M 161.72 303.70 C 169.48 300.23 179.31 301.38 187.32 303.57 C 178.78 302.73 170.26 303.97 161.72 303.70 Z" fill="#d7a8aa" opacity="1.00" stroke="#d7a8aa" stroke-width="0.25"/>
<path d="M 14.06 305.18 C 14.71 304.42 15.37 303.67 16.03 302.91 C 16.05 307.01 16.10 311.11 16.17 315.22 C 15.90 365.80 15.87 416.39 16.17 466.97 C 17.22 472.08 15.15 480.48 21.78 482.25 C 76.77 484.00 131.94 482.50 187.00 483.00 C 253.08 482.55 319.29 483.88 385.29 482.36 C 392.28 481.49 399.57 481.40 405.99 478.05 C 416.76 475.72 427.63 471.14 436.12 464.01 C 437.96 464.06 439.34 462.77 440.16 461.25 C 449.59 454.11 457.68 445.34 465.03 436.12 C 471.30 429.14 475.39 420.56 478.96 411.98 C 481.90 404.00 483.44 395.57 485.32 387.30 C 487.28 360.57 485.02 333.53 486.31 306.70 C 488.53 321.39 485.56 336.48 487.75 351.24 C 489.23 372.38 488.01 394.09 479.88 413.89 C 464.22 450.46 429.40 480.29 388.98 483.88 C 355.42 484.40 321.85 483.48 288.30 484.32 C 228.80 483.71 169.29 483.95 109.79 484.20 C 80.00 483.46 50.17 484.62 20.39 483.68 C 14.94 482.21 14.91 475.47 14.09 470.97 C 13.91 415.71 13.99 360.44 14.06 305.18 Z" fill="#e8b8bc" opacity="1.00" stroke="#e8b8bc" stroke-width="0.25"/>
<path d="M 305.32 308.36 C 319.63 301.76 336.36 303.48 350.97 308.05 C 365.42 313.85 371.57 329.16 375.63 343.19 C 376.41 348.65 375.44 355.84 380.36 359.72 C 387.82 361.69 400.39 362.95 402.32 353.20 C 406.32 338.10 393.91 326.01 391.68 311.89 C 396.77 317.47 397.55 325.47 401.25 331.89 C 406.56 339.42 403.30 349.16 403.82 357.67 C 398.57 364.01 389.35 362.81 382.02 362.00 C 375.59 361.88 373.83 354.05 373.91 349.06 C 373.95 338.97 368.52 330.24 364.59 321.34 C 356.39 311.07 343.21 304.21 329.83 306.66 C 328.26 306.76 326.70 306.86 325.14 306.97 C 317.41 307.55 309.30 308.87 302.34 312.39 C 299.84 317.22 293.05 319.91 292.86 325.80 C 290.93 328.70 288.95 331.57 287.12 334.54 C 283.40 339.85 282.54 346.55 282.73 352.89 L 281.85 352.72 C 282.24 336.04 290.19 317.07 305.32 308.36 Z" fill="#b66c70" opacity="1.00" stroke="#b66c70" stroke-width="0.25"/>
<path d="M 147.33 313.32 C 163.82 304.97 186.28 302.82 200.66 316.41 C 213.53 325.91 215.18 342.98 216.03 357.66 C 222.41 369.31 244.32 368.62 251.00 356.77 C 254.59 362.93 259.30 367.62 267.22 365.25 C 263.89 368.29 252.19 366.83 256.07 373.85 C 258.76 369.72 259.02 379.40 264.36 376.61 C 268.05 384.36 274.83 393.00 284.37 391.64 C 288.44 391.02 288.49 395.34 290.26 397.81 C 295.60 399.78 304.71 396.35 304.70 404.31 C 315.47 401.32 309.21 414.59 316.74 416.17 C 317.42 421.94 306.66 433.47 319.41 432.67 C 321.08 440.07 319.67 447.60 320.15 455.05 C 320.59 459.15 313.07 459.44 316.49 464.49 C 324.57 484.38 351.51 474.51 368.18 476.92 C 377.44 478.57 386.88 477.77 396.24 478.19 C 395.42 478.77 394.60 479.36 393.79 479.97 C 392.62 480.09 391.46 480.22 390.30 480.37 C 365.62 479.41 340.91 480.50 316.22 479.79 C 306.93 478.52 297.55 479.17 288.21 478.87 C 285.70 478.16 283.26 477.48 280.75 476.86 C 285.22 474.97 289.89 473.59 294.65 472.66 C 296.15 468.48 300.08 467.85 304.00 466.83 C 304.36 464.03 297.53 455.69 303.34 456.67 C 303.86 471.08 310.30 450.14 303.55 448.56 C 298.41 447.69 301.54 440.84 296.92 439.05 C 294.54 432.23 295.46 424.42 295.92 417.20 C 289.18 414.85 280.71 420.63 273.56 416.35 C 265.37 411.38 255.08 416.13 246.39 412.87 C 239.45 413.02 239.94 404.40 242.27 400.08 C 249.43 400.65 257.62 404.16 263.93 398.74 C 266.23 393.29 258.72 388.97 254.40 391.23 C 249.68 391.77 238.86 395.26 240.83 386.09 C 240.91 383.56 234.36 383.54 236.95 381.07 C 241.40 380.14 242.76 371.56 237.16 371.78 C 224.18 372.12 209.24 362.53 211.16 347.96 C 213.96 338.78 203.50 339.29 198.54 342.51 C 192.86 345.99 192.99 337.86 188.54 337.56 C 178.97 338.62 176.70 327.60 169.18 325.28 C 165.22 329.10 159.45 327.23 154.62 328.61 C 151.59 329.40 151.86 334.14 148.56 334.42 C 143.40 333.93 139.38 338.45 134.25 337.42 C 132.90 338.77 131.97 340.47 130.97 342.08 C 130.19 341.35 129.43 340.61 128.68 339.86 C 131.63 329.28 139.79 320.93 147.33 313.32 Z" fill="#bf2d38" opacity="1.00" stroke="#bf2d38" stroke-width="0.25"/>
<path d="M 302.34 312.39 C 309.30 308.87 317.41 307.55 325.14 306.97 C 319.24 313.02 319.16 323.67 326.83 328.20 C 329.56 332.21 334.25 333.45 337.85 336.25 C 337.04 341.39 337.93 346.46 339.60 351.40 C 342.91 352.09 346.65 351.51 349.74 353.20 C 352.71 356.73 350.21 362.49 352.64 366.33 C 357.26 367.81 362.69 367.65 366.89 370.24 C 368.65 375.32 365.50 382.92 371.14 385.93 C 374.83 391.18 370.76 402.70 375.77 405.95 C 372.58 399.18 381.13 399.61 382.76 403.35 C 382.81 407.14 382.95 410.94 383.18 414.74 C 385.50 416.80 390.31 417.13 387.90 422.02 C 387.83 430.62 389.80 439.15 388.87 447.75 C 386.20 449.56 381.51 450.74 384.56 455.35 C 388.75 454.69 392.01 456.29 392.74 460.31 C 393.55 465.92 404.71 460.36 403.77 466.80 C 404.50 470.18 397.32 470.88 402.10 473.67 C 408.49 472.05 414.45 468.51 421.28 469.28 C 413.40 473.39 404.88 476.18 396.24 478.19 C 386.88 477.77 377.44 478.57 368.18 476.92 C 365.46 476.30 362.66 476.05 360.23 474.65 C 363.66 472.85 359.60 471.37 358.32 469.63 C 356.46 464.54 359.22 457.37 353.30 454.69 C 348.90 451.21 355.42 446.32 359.31 447.21 C 364.40 438.20 347.39 442.70 351.69 432.21 C 347.48 431.48 343.70 430.70 343.97 424.94 C 336.14 412.60 338.50 396.54 329.24 384.84 C 327.07 381.65 320.88 384.58 320.28 379.83 C 320.25 375.00 312.97 376.35 314.27 370.48 C 312.84 367.94 307.10 366.02 309.45 362.48 C 312.15 359.74 312.28 355.81 311.96 352.17 C 307.65 351.58 299.77 344.43 296.86 350.86 C 295.90 354.68 291.16 352.79 289.21 350.80 C 285.52 342.70 291.26 333.94 292.86 325.80 C 293.05 319.91 299.84 317.22 302.34 312.39 Z" fill="#b32832" opacity="1.00" stroke="#b32832" stroke-width="0.25"/>
<path d="M 325.14 306.97 C 326.70 306.86 328.26 306.76 329.83 306.66 C 335.99 308.34 342.56 308.82 348.37 311.61 C 360.47 316.27 365.02 329.37 369.62 340.34 C 371.32 348.81 369.14 362.33 380.61 364.47 C 388.42 363.82 397.04 366.25 404.20 362.14 C 400.82 369.76 391.77 369.26 385.01 368.14 C 385.62 372.76 382.18 381.54 390.46 380.59 C 392.83 384.08 397.56 383.53 399.96 386.91 C 396.70 375.90 409.23 381.16 414.24 382.09 C 412.86 384.20 409.97 383.92 407.97 385.14 C 408.24 390.99 415.99 386.80 419.11 385.08 C 425.99 384.73 423.53 395.75 423.28 399.18 C 414.25 397.94 414.80 410.71 419.27 414.87 C 423.55 414.55 434.74 417.49 431.98 408.98 C 434.87 395.25 431.52 414.61 436.92 417.06 C 440.04 423.55 449.42 425.76 449.38 433.57 C 445.89 437.54 451.01 440.09 454.68 439.89 C 457.13 437.37 458.71 429.81 463.35 433.17 C 452.60 448.45 438.68 461.94 421.28 469.28 C 414.45 468.51 408.49 472.05 402.10 473.67 C 397.32 470.88 404.50 470.18 403.77 466.80 C 404.71 460.36 393.55 465.92 392.74 460.31 C 392.01 456.29 388.75 454.69 384.56 455.35 C 381.51 450.74 386.20 449.56 388.87 447.75 C 389.80 439.15 387.83 430.62 387.90 422.02 C 390.31 417.13 385.50 416.80 383.18 414.74 C 382.95 410.94 382.81 407.14 382.76 403.35 C 381.13 399.61 372.58 399.18 375.77 405.95 C 370.76 402.70 374.83 391.18 371.14 385.93 C 365.50 382.92 368.65 375.32 366.89 370.24 C 362.69 367.65 357.26 367.81 352.64 366.33 C 350.21 362.49 352.71 356.73 349.74 353.20 C 346.65 351.51 342.91 352.09 339.60 351.40 C 337.93 346.46 337.04 341.39 337.85 336.25 C 334.25 333.45 329.56 332.21 326.83 328.20 C 319.16 323.67 319.24 313.02 325.14 306.97 Z" fill="#ac2730" opacity="1.00" stroke="#ac2730" stroke-width="0.25"/>
<path d="M 255.95 334.00 C 257.19 326.26 260.86 319.01 263.99 311.91 C 261.82 319.34 261.45 328.25 255.95 334.00 Z" fill="#bb7579" opacity="1.00" stroke="#bb7579" stroke-width="0.25"/>
<path d="M 240.14 322.78 C 243.07 332.20 248.48 341.34 245.61 351.61 C 246.56 363.52 230.16 361.58 223.74 358.25 C 230.08 356.67 242.04 361.95 243.87 352.88 C 247.61 342.34 240.27 333.10 240.14 322.78 Z" fill="#dda9ab" opacity="1.00" stroke="#dda9ab" stroke-width="0.25"/>
<path d="M 154.62 328.61 C 159.45 327.23 165.22 329.10 169.18 325.28 C 176.70 327.60 178.97 338.62 188.54 337.56 C 192.99 337.86 192.86 345.99 198.54 342.51 C 203.50 339.29 213.96 338.78 211.16 347.96 C 209.24 362.53 224.18 372.12 237.16 371.78 C 242.76 371.56 241.40 380.14 236.95 381.07 C 234.36 383.54 240.91 383.56 240.83 386.09 C 238.86 395.26 249.68 391.77 254.40 391.23 C 258.72 388.97 266.23 393.29 263.93 398.74 C 257.62 404.16 249.43 400.65 242.27 400.08 C 239.94 404.40 239.45 413.02 246.39 412.87 C 255.08 416.13 265.37 411.38 273.56 416.35 C 280.71 420.63 289.18 414.85 295.92 417.20 C 295.46 424.42 294.54 432.23 296.92 439.05 C 301.54 440.84 298.41 447.69 303.55 448.56 C 310.30 450.14 303.86 471.08 303.34 456.67 C 297.53 455.69 304.36 464.03 304.00 466.83 C 300.08 467.85 296.15 468.48 294.65 472.66 C 289.89 473.59 285.22 474.97 280.75 476.86 C 278.52 476.78 276.31 476.44 274.13 476.01 C 278.01 473.55 271.97 472.66 270.16 471.67 C 268.99 469.01 271.70 468.40 273.57 467.52 C 273.92 461.50 271.02 454.29 274.22 449.07 C 282.28 447.19 278.02 458.96 279.09 463.00 C 284.43 462.70 278.21 452.06 279.43 448.58 C 275.66 447.56 270.29 448.70 271.44 442.46 C 269.32 436.46 260.32 441.42 263.33 447.42 C 249.22 453.19 264.80 426.88 250.97 430.94 C 242.18 431.22 233.36 433.57 224.57 431.46 C 223.58 428.76 225.01 423.60 220.99 423.96 C 216.14 424.38 207.16 421.32 207.65 428.82 C 200.16 422.13 207.78 407.01 201.53 398.43 C 201.76 386.68 199.22 375.60 193.98 365.19 C 192.80 362.87 191.09 355.25 192.02 365.93 C 192.76 359.20 185.87 359.50 180.58 359.46 C 180.53 354.51 176.78 347.46 171.01 347.96 C 162.46 349.26 153.95 347.47 145.38 348.13 C 143.74 351.71 141.04 354.31 137.11 355.06 C 135.69 357.53 133.98 359.69 130.90 359.93 C 131.18 353.97 132.98 347.98 130.97 342.08 C 131.97 340.47 132.90 338.77 134.25 337.42 C 139.38 338.45 143.40 333.93 148.56 334.42 C 151.86 334.14 151.59 329.40 154.62 328.61 Z" fill="#c62c39" opacity="1.00" stroke="#c62c39" stroke-width="0.25"/>
<path d="M 287.12 334.54 C 288.95 331.57 290.93 328.70 292.86 325.80 C 291.26 333.94 285.52 342.70 289.21 350.80 C 291.16 352.79 295.90 354.68 296.86 350.86 C 299.77 344.43 307.65 351.58 311.96 352.17 C 312.28 355.81 312.15 359.74 309.45 362.48 C 307.10 366.02 312.84 367.94 314.27 370.48 C 312.97 376.35 320.25 375.00 320.28 379.83 C 320.88 384.58 327.07 381.65 329.24 384.84 C 338.50 396.54 336.14 412.60 343.97 424.94 C 343.70 430.70 347.48 431.48 351.69 432.21 C 347.39 442.70 364.40 438.20 359.31 447.21 C 355.42 446.32 348.90 451.21 353.30 454.69 C 359.22 457.37 356.46 464.54 358.32 469.63 C 359.60 471.37 363.66 472.85 360.23 474.65 C 362.66 476.05 365.46 476.30 368.18 476.92 C 351.51 474.51 324.57 484.38 316.49 464.49 C 313.07 459.44 320.59 459.15 320.15 455.05 C 319.67 447.60 321.08 440.07 319.41 432.67 C 306.66 433.47 317.42 421.94 316.74 416.17 C 309.21 414.59 315.47 401.32 304.70 404.31 C 304.71 396.35 295.60 399.78 290.26 397.81 C 288.49 395.34 288.44 391.02 284.37 391.64 C 274.83 393.00 268.05 384.36 264.36 376.61 C 259.02 379.40 258.76 369.72 256.07 373.85 C 252.19 366.83 263.89 368.29 267.22 365.25 C 274.08 365.73 287.00 365.35 285.04 355.01 C 284.76 348.11 287.95 341.23 287.12 334.54 Z" fill="#bb2a35" opacity="1.00" stroke="#bb2a35" stroke-width="0.25"/>
<path d="M 104.45 359.59 C 94.30 354.21 97.85 337.50 103.92 329.83 C 100.59 337.71 100.25 346.19 101.20 354.64 C 105.47 360.53 115.11 360.35 120.82 356.82 C 125.18 350.26 121.72 341.17 126.25 334.61 C 124.49 342.32 126.86 351.15 121.83 357.76 C 117.62 362.90 109.84 359.06 104.45 359.59 Z" fill="#daadac" opacity="1.00" stroke="#daadac" stroke-width="0.25"/>
<path d="M 256.40 360.58 C 253.36 352.66 251.82 341.10 255.95 334.00 C 254.76 342.21 255.35 350.75 257.22 358.75 C 264.43 363.39 279.97 363.55 281.85 352.72 L 282.73 352.89 C 283.37 365.76 263.92 365.65 256.40 360.58 Z" fill="#bf696c" opacity="1.00" stroke="#bf696c" stroke-width="0.25"/>
<path d="M 38.30 338.13 C 41.86 336.80 38.76 343.28 41.39 343.60 C 48.15 344.88 56.71 343.05 62.54 346.35 C 62.45 354.15 70.35 351.72 75.74 353.21 C 79.37 358.97 77.83 366.53 80.23 372.77 C 87.45 374.94 93.89 378.60 98.29 384.74 C 108.14 383.26 117.70 389.60 127.05 388.14 C 131.36 380.92 136.94 389.07 142.15 389.86 C 143.88 392.55 145.18 395.70 149.56 394.51 C 157.02 399.59 156.66 412.27 167.51 412.58 C 172.12 413.70 169.65 420.16 169.06 423.22 C 167.56 427.15 169.19 433.56 162.59 432.71 C 159.33 433.64 159.40 437.43 162.27 438.86 C 166.31 438.79 171.08 440.00 174.75 437.72 C 175.96 435.29 175.31 431.53 178.30 430.36 C 183.79 428.40 179.74 421.03 181.06 416.86 C 183.98 419.42 180.25 426.62 182.73 429.52 C 186.55 432.15 190.59 427.76 194.11 430.78 C 200.24 432.03 199.29 440.42 205.94 441.10 C 214.31 451.25 228.44 447.90 239.84 450.20 C 240.40 454.67 239.99 459.18 239.88 463.69 C 239.07 466.90 230.13 462.64 232.25 465.88 C 234.00 465.96 237.51 466.12 239.26 466.20 C 232.71 469.73 222.78 463.32 216.08 467.22 C 214.33 471.98 219.45 472.01 222.88 473.06 C 226.41 480.33 236.00 475.73 242.22 477.80 C 236.22 477.89 230.22 478.02 224.22 477.83 C 211.58 476.15 198.84 475.81 186.10 475.96 C 186.04 473.97 211.08 475.50 195.97 474.02 C 190.05 473.40 200.76 472.66 202.87 471.80 C 205.22 465.12 192.86 472.65 193.39 466.34 C 192.64 457.35 175.24 469.23 176.48 458.43 C 172.81 452.61 165.88 460.02 160.96 457.12 C 156.90 456.65 153.75 450.31 150.42 455.39 C 139.92 452.23 148.02 468.63 137.99 465.08 C 135.73 464.62 127.37 466.56 128.34 461.58 C 123.95 451.83 140.48 460.26 136.00 450.06 C 135.29 447.20 129.93 448.47 128.86 445.21 C 128.39 441.01 124.47 436.43 120.46 440.39 C 122.36 448.35 114.28 443.69 111.63 447.62 C 108.94 451.54 101.93 450.96 98.32 449.03 C 99.31 446.10 101.85 441.43 98.06 439.88 C 93.53 436.03 86.07 441.19 81.82 438.25 C 82.61 428.64 71.65 431.66 66.07 432.00 C 61.73 433.50 64.17 442.66 57.17 440.35 C 53.05 441.13 45.88 442.73 47.59 435.47 C 47.88 428.12 49.84 415.00 39.16 414.68 C 27.72 418.08 35.88 402.07 29.99 399.00 C 24.64 401.84 31.85 417.40 22.19 415.81 C 16.53 402.43 25.00 386.41 19.15 373.70 C 18.73 365.38 19.08 357.04 19.23 348.73 C 21.18 354.11 22.69 359.92 22.63 365.66 C 23.09 368.26 20.66 374.88 24.86 373.97 C 26.70 366.57 23.08 354.71 31.36 350.43 C 31.81 344.93 39.45 344.17 38.30 338.13 Z" fill="#d02f3c" opacity="1.00" stroke="#d02f3c" stroke-width="0.25"/>
<path d="M 19.15 373.70 C 25.00 386.41 16.53 402.43 22.19 415.81 C 31.85 417.40 24.64 401.84 29.99 399.00 C 35.88 402.07 27.72 418.08 39.16 414.68 C 49.84 415.00 47.88 428.12 47.59 435.47 C 45.88 442.73 53.05 441.13 57.17 440.35 C 64.17 442.66 61.73 433.50 66.07 432.00 C 71.65 431.66 82.61 428.64 81.82 438.25 C 86.07 441.19 93.53 436.03 98.06 439.88 C 101.85 441.43 99.31 446.10 98.32 449.03 C 101.93 450.96 108.94 451.54 111.63 447.62 C 114.28 443.69 122.36 448.35 120.46 440.39 C 124.47 436.43 128.39 441.01 128.86 445.21 C 129.93 448.47 135.29 447.20 136.00 450.06 C 140.48 460.26 123.95 451.83 128.34 461.58 C 127.37 466.56 135.73 464.62 137.99 465.08 C 148.02 468.63 139.92 452.23 150.42 455.39 C 153.75 450.31 156.90 456.65 160.96 457.12 C 165.88 460.02 172.81 452.61 176.48 458.43 C 175.24 469.23 192.64 457.35 193.39 466.34 C 192.86 472.65 205.22 465.12 202.87 471.80 C 200.76 472.66 190.05 473.40 195.97 474.02 C 211.08 475.50 186.04 473.97 186.10 475.96 C 198.84 475.81 211.58 476.15 224.22 477.83 C 181.20 477.04 138.14 477.04 95.02 476.87 C 71.05 472.41 45.87 481.48 22.34 474.68 C 18.07 453.25 22.89 431.27 19.29 409.71 C 18.49 397.73 19.17 385.69 19.15 373.70 Z" fill="#d4313f" opacity="1.00" stroke="#d4313f" stroke-width="0.25"/>
<path d="M 481.07 395.12 L 482.05 394.89 C 481.98 399.56 479.73 403.78 477.91 407.96 C 477.95 403.47 479.73 399.32 481.07 395.12 Z" fill="#b0585e" opacity="1.00" stroke="#b0585e" stroke-width="0.25"/>
<path d="M 463.35 433.17 C 469.85 425.81 473.11 416.38 477.91 407.96 C 477.91 409.22 477.91 410.49 477.93 411.76 C 473.96 420.05 468.62 427.69 465.03 436.12 C 457.68 445.34 449.59 454.11 440.16 461.25 C 438.15 460.65 436.46 462.07 436.12 464.01 C 426.15 468.79 416.13 473.59 405.99 478.05 C 401.79 477.83 397.96 479.88 393.79 479.97 C 394.60 479.36 395.42 478.77 396.24 478.19 C 404.88 476.18 413.40 473.39 421.28 469.28 C 438.68 461.94 452.60 448.45 463.35 433.17 Z" fill="#b65c64" opacity="1.00" stroke="#b65c64" stroke-width="0.25"/>
<path d="M 19.29 409.71 C 22.89 431.27 18.07 453.25 22.34 474.68 C 45.87 481.48 71.05 472.41 95.02 476.87 C 138.14 477.04 181.20 477.04 224.22 477.83 C 230.22 478.02 236.22 477.89 242.22 477.80 C 257.55 477.96 272.88 478.83 288.21 478.87 C 297.55 479.17 306.93 478.52 316.22 479.79 C 298.09 480.83 279.72 478.73 261.71 480.73 C 259.88 480.85 258.05 480.88 256.22 480.84 C 178.48 479.05 100.57 480.24 22.77 480.24 C 21.02 479.97 19.79 478.52 18.76 477.21 C 19.40 454.71 18.57 432.21 19.29 409.71 Z" fill="#d23b48" opacity="1.00" stroke="#d23b48" stroke-width="0.25"/>
<path d="M 465.03 436.12 C 468.62 427.69 473.96 420.05 477.93 411.76 L 478.96 411.98 C 475.39 420.56 471.30 429.14 465.03 436.12 Z" fill="#c8898f" opacity="1.00" stroke="#c8898f" stroke-width="0.25"/>
<path d="M 436.12 464.01 C 436.46 462.07 438.15 460.65 440.16 461.25 C 439.34 462.77 437.96 464.06 436.12 464.01 Z" fill="#c88588" opacity="1.00" stroke="#c88588" stroke-width="0.25"/>
<path d="M 405.99 478.05 C 416.13 473.59 426.15 468.79 436.12 464.01 C 427.63 471.14 416.76 475.72 405.99 478.05 Z" fill="#c9888c" opacity="1.00" stroke="#c9888c" stroke-width="0.25"/>
<path d="M 22.77 480.24 C 100.57 480.24 178.48 479.05 256.22 480.84 C 178.42 480.71 100.50 481.91 22.77 480.24 Z" fill="#da5964" opacity="1.00" stroke="#da5964" stroke-width="0.25"/>
<path d="M 261.71 480.73 C 279.72 478.73 298.09 480.83 316.22 479.79 C 340.91 480.50 365.62 479.41 390.30 480.37 C 347.50 481.70 304.55 480.90 261.71 480.73 Z" fill="#ca5a63" opacity="1.00" stroke="#ca5a63" stroke-width="0.25"/>
<path d="M 21.78 482.25 C 142.94 481.90 264.13 481.69 385.29 482.36 C 319.29 483.88 253.08 482.55 187.00 483.00 C 131.94 482.50 76.77 484.00 21.78 482.25 Z" fill="#e7989e" opacity="1.00" stroke="#e7989e" stroke-width="0.25"/>
<path d="M 109.79 484.20 C 169.29 483.95 228.80 483.71 288.30 484.32 C 228.92 485.41 169.20 485.58 109.79 484.20 Z" fill="#f9d8d9" opacity="1.00" stroke="#f9d8d9" stroke-width="0.25"/>
</svg>